<svg viewBox="0 0 96 96" width="96" height="96" style="image-rendering:pixelated" xmlns="http://www.w3.org/2000/svg">
<rect x="36" y="18" width="3" height="1" fill="#2a180f"/>
<rect x="60" y="18" width="3" height="1" fill="#2a180f"/>
<rect x="36" y="19" width="3" height="1" fill="#2a180f"/>
<rect x="60" y="19" width="3" height="1" fill="#2a180f"/>
<rect x="36" y="20" width="3" height="1" fill="#2a180f"/>
<rect x="60" y="20" width="3" height="1" fill="#2a180f"/>
<rect x="27" y="21" width="9" height="1" fill="#2a180f"/>
<rect x="36" y="21" width="3" height="1" fill="#835233"/>
<rect x="39" y="21" width="9" height="1" fill="#2a180f"/>
<rect x="51" y="21" width="9" height="1" fill="#2a180f"/>
<rect x="60" y="21" width="3" height="1" fill="#835233"/>
<rect x="63" y="21" width="9" height="1" fill="#2a180f"/>
<rect x="27" y="22" width="9" height="1" fill="#2a180f"/>
<rect x="36" y="22" width="3" height="1" fill="#835233"/>
<rect x="39" y="22" width="9" height="1" fill="#2a180f"/>
<rect x="51" y="22" width="9" height="1" fill="#2a180f"/>
<rect x="60" y="22" width="3" height="1" fill="#835233"/>
<rect x="63" y="22" width="9" height="1" fill="#2a180f"/>
<rect x="27" y="23" width="9" height="1" fill="#2a180f"/>
<rect x="36" y="23" width="3" height="1" fill="#835233"/>
<rect x="39" y="23" width="9" height="1" fill="#2a180f"/>
<rect x="51" y="23" width="9" height="1" fill="#2a180f"/>
<rect x="60" y="23" width="3" height="1" fill="#835233"/>
<rect x="63" y="23" width="9" height="1" fill="#2a180f"/>
<rect x="24" y="24" width="3" height="1" fill="#2a180f"/>
<rect x="27" y="24" width="3" height="1" fill="#4b2c19"/>
<rect x="30" y="24" width="15" height="1" fill="#835233"/>
<rect x="45" y="24" width="3" height="1" fill="#2a180f"/>
<rect x="51" y="24" width="3" height="1" fill="#2a180f"/>
<rect x="54" y="24" width="18" height="1" fill="#835233"/>
<rect x="72" y="24" width="3" height="1" fill="#2a180f"/>
<rect x="24" y="25" width="3" height="1" fill="#2a180f"/>
<rect x="27" y="25" width="3" height="1" fill="#4b2c19"/>
<rect x="30" y="25" width="15" height="1" fill="#835233"/>
<rect x="45" y="25" width="3" height="1" fill="#2a180f"/>
<rect x="51" y="25" width="3" height="1" fill="#2a180f"/>
<rect x="54" y="25" width="18" height="1" fill="#835233"/>
<rect x="72" y="25" width="3" height="1" fill="#2a180f"/>
<rect x="24" y="26" width="3" height="1" fill="#2a180f"/>
<rect x="27" y="26" width="3" height="1" fill="#4b2c19"/>
<rect x="30" y="26" width="15" height="1" fill="#835233"/>
<rect x="45" y="26" width="3" height="1" fill="#2a180f"/>
<rect x="51" y="26" width="3" height="1" fill="#2a180f"/>
<rect x="54" y="26" width="18" height="1" fill="#835233"/>
<rect x="72" y="26" width="3" height="1" fill="#2a180f"/>
<rect x="24" y="27" width="3" height="1" fill="#2a180f"/>
<rect x="27" y="27" width="21" height="1" fill="#835233"/>
<rect x="48" y="27" width="3" height="1" fill="#2a180f"/>
<rect x="51" y="27" width="3" height="1" fill="#835233"/>
<rect x="54" y="27" width="18" height="1" fill="#b07549"/>
<rect x="72" y="27" width="3" height="1" fill="#2a180f"/>
<rect x="24" y="28" width="3" height="1" fill="#2a180f"/>
<rect x="27" y="28" width="21" height="1" fill="#835233"/>
<rect x="48" y="28" width="3" height="1" fill="#2a180f"/>
<rect x="51" y="28" width="3" height="1" fill="#835233"/>
<rect x="54" y="28" width="18" height="1" fill="#b07549"/>
<rect x="72" y="28" width="3" height="1" fill="#2a180f"/>
<rect x="24" y="29" width="3" height="1" fill="#2a180f"/>
<rect x="27" y="29" width="21" height="1" fill="#835233"/>
<rect x="48" y="29" width="3" height="1" fill="#2a180f"/>
<rect x="51" y="29" width="3" height="1" fill="#835233"/>
<rect x="54" y="29" width="18" height="1" fill="#b07549"/>
<rect x="72" y="29" width="3" height="1" fill="#2a180f"/>
<rect x="21" y="30" width="3" height="1" fill="#2a180f"/>
<rect x="24" y="30" width="24" height="1" fill="#835233"/>
<rect x="48" y="30" width="3" height="1" fill="#ffe4c8"/>
<rect x="51" y="30" width="24" height="1" fill="#b07549"/>
<rect x="75" y="30" width="3" height="1" fill="#2a180f"/>
<rect x="21" y="31" width="3" height="1" fill="#2a180f"/>
<rect x="24" y="31" width="24" height="1" fill="#835233"/>
<rect x="48" y="31" width="3" height="1" fill="#ffe4c8"/>
<rect x="51" y="31" width="24" height="1" fill="#b07549"/>
<rect x="75" y="31" width="3" height="1" fill="#2a180f"/>
<rect x="21" y="32" width="3" height="1" fill="#2a180f"/>
<rect x="24" y="32" width="24" height="1" fill="#835233"/>
<rect x="48" y="32" width="3" height="1" fill="#ffe4c8"/>
<rect x="51" y="32" width="24" height="1" fill="#b07549"/>
<rect x="75" y="32" width="3" height="1" fill="#2a180f"/>
<rect x="21" y="33" width="3" height="1" fill="#2a180f"/>
<rect x="24" y="33" width="18" height="1" fill="#835233"/>
<rect x="42" y="33" width="3" height="1" fill="#b07549"/>
<rect x="45" y="33" width="3" height="1" fill="#d39b69"/>
<rect x="48" y="33" width="3" height="1" fill="#b07549"/>
<rect x="51" y="33" width="3" height="1" fill="#d39b69"/>
<rect x="54" y="33" width="21" height="1" fill="#b07549"/>
<rect x="75" y="33" width="3" height="1" fill="#2a180f"/>
<rect x="21" y="34" width="3" height="1" fill="#2a180f"/>
<rect x="24" y="34" width="18" height="1" fill="#835233"/>
<rect x="42" y="34" width="3" height="1" fill="#b07549"/>
<rect x="45" y="34" width="3" height="1" fill="#d39b69"/>
<rect x="48" y="34" width="3" height="1" fill="#b07549"/>
<rect x="51" y="34" width="3" height="1" fill="#d39b69"/>
<rect x="54" y="34" width="21" height="1" fill="#b07549"/>
<rect x="75" y="34" width="3" height="1" fill="#2a180f"/>
<rect x="21" y="35" width="3" height="1" fill="#2a180f"/>
<rect x="24" y="35" width="18" height="1" fill="#835233"/>
<rect x="42" y="35" width="3" height="1" fill="#b07549"/>
<rect x="45" y="35" width="3" height="1" fill="#d39b69"/>
<rect x="48" y="35" width="3" height="1" fill="#b07549"/>
<rect x="51" y="35" width="3" height="1" fill="#d39b69"/>
<rect x="54" y="35" width="21" height="1" fill="#b07549"/>
<rect x="75" y="35" width="3" height="1" fill="#2a180f"/>
<rect x="21" y="36" width="3" height="1" fill="#2a180f"/>
<rect x="24" y="36" width="15" height="1" fill="#835233"/>
<rect x="39" y="36" width="36" height="1" fill="#b07549"/>
<rect x="75" y="36" width="3" height="1" fill="#2a180f"/>
<rect x="21" y="37" width="3" height="1" fill="#2a180f"/>
<rect x="24" y="37" width="15" height="1" fill="#835233"/>
<rect x="39" y="37" width="36" height="1" fill="#b07549"/>
<rect x="75" y="37" width="3" height="1" fill="#2a180f"/>
<rect x="21" y="38" width="3" height="1" fill="#2a180f"/>
<rect x="24" y="38" width="15" height="1" fill="#835233"/>
<rect x="39" y="38" width="36" height="1" fill="#b07549"/>
<rect x="75" y="38" width="3" height="1" fill="#2a180f"/>
<rect x="21" y="39" width="3" height="1" fill="#2a180f"/>
<rect x="24" y="39" width="12" height="1" fill="#835233"/>
<rect x="36" y="39" width="27" height="1" fill="#b07549"/>
<rect x="63" y="39" width="12" height="1" fill="#d39b69"/>
<rect x="75" y="39" width="3" height="1" fill="#2a180f"/>
<rect x="21" y="40" width="3" height="1" fill="#2a180f"/>
<rect x="24" y="40" width="12" height="1" fill="#835233"/>
<rect x="36" y="40" width="27" height="1" fill="#b07549"/>
<rect x="63" y="40" width="12" height="1" fill="#d39b69"/>
<rect x="75" y="40" width="3" height="1" fill="#2a180f"/>
<rect x="21" y="41" width="3" height="1" fill="#2a180f"/>
<rect x="24" y="41" width="12" height="1" fill="#835233"/>
<rect x="36" y="41" width="27" height="1" fill="#b07549"/>
<rect x="63" y="41" width="12" height="1" fill="#d39b69"/>
<rect x="75" y="41" width="3" height="1" fill="#2a180f"/>
<rect x="21" y="42" width="3" height="1" fill="#2a180f"/>
<rect x="24" y="42" width="9" height="1" fill="#835233"/>
<rect x="33" y="42" width="21" height="1" fill="#b07549"/>
<rect x="54" y="42" width="21" height="1" fill="#d39b69"/>
<rect x="75" y="42" width="3" height="1" fill="#2a180f"/>
<rect x="21" y="43" width="3" height="1" fill="#2a180f"/>
<rect x="24" y="43" width="9" height="1" fill="#835233"/>
<rect x="33" y="43" width="21" height="1" fill="#b07549"/>
<rect x="54" y="43" width="21" height="1" fill="#d39b69"/>
<rect x="75" y="43" width="3" height="1" fill="#2a180f"/>
<rect x="21" y="44" width="3" height="1" fill="#2a180f"/>
<rect x="24" y="44" width="9" height="1" fill="#835233"/>
<rect x="33" y="44" width="21" height="1" fill="#b07549"/>
<rect x="54" y="44" width="21" height="1" fill="#d39b69"/>
<rect x="75" y="44" width="3" height="1" fill="#2a180f"/>
<rect x="24" y="45" width="3" height="1" fill="#2a180f"/>
<rect x="27" y="45" width="6" height="1" fill="#835233"/>
<rect x="33" y="45" width="18" height="1" fill="#b07549"/>
<rect x="51" y="45" width="21" height="1" fill="#d39b69"/>
<rect x="72" y="45" width="3" height="1" fill="#2a180f"/>
<rect x="24" y="46" width="3" height="1" fill="#2a180f"/>
<rect x="27" y="46" width="6" height="1" fill="#835233"/>
<rect x="33" y="46" width="18" height="1" fill="#b07549"/>
<rect x="51" y="46" width="21" height="1" fill="#d39b69"/>
<rect x="72" y="46" width="3" height="1" fill="#2a180f"/>
<rect x="24" y="47" width="3" height="1" fill="#2a180f"/>
<rect x="27" y="47" width="6" height="1" fill="#835233"/>
<rect x="33" y="47" width="18" height="1" fill="#b07549"/>
<rect x="51" y="47" width="21" height="1" fill="#d39b69"/>
<rect x="72" y="47" width="3" height="1" fill="#2a180f"/>
<rect x="24" y="48" width="3" height="1" fill="#2a180f"/>
<rect x="27" y="48" width="6" height="1" fill="#835233"/>
<rect x="33" y="48" width="9" height="1" fill="#0b1020"/>
<rect x="42" y="48" width="6" height="1" fill="#b07549"/>
<rect x="48" y="48" width="9" height="1" fill="#d39b69"/>
<rect x="57" y="48" width="9" height="1" fill="#0b1020"/>
<rect x="66" y="48" width="6" height="1" fill="#d39b69"/>
<rect x="72" y="48" width="3" height="1" fill="#2a180f"/>
<rect x="24" y="49" width="3" height="1" fill="#2a180f"/>
<rect x="27" y="49" width="6" height="1" fill="#835233"/>
<rect x="33" y="49" width="9" height="1" fill="#0b1020"/>
<rect x="42" y="49" width="6" height="1" fill="#b07549"/>
<rect x="48" y="49" width="9" height="1" fill="#d39b69"/>
<rect x="57" y="49" width="9" height="1" fill="#0b1020"/>
<rect x="66" y="49" width="6" height="1" fill="#d39b69"/>
<rect x="72" y="49" width="3" height="1" fill="#2a180f"/>
<rect x="24" y="50" width="3" height="1" fill="#2a180f"/>
<rect x="27" y="50" width="6" height="1" fill="#835233"/>
<rect x="33" y="50" width="9" height="1" fill="#0b1020"/>
<rect x="42" y="50" width="6" height="1" fill="#b07549"/>
<rect x="48" y="50" width="9" height="1" fill="#d39b69"/>
<rect x="57" y="50" width="9" height="1" fill="#0b1020"/>
<rect x="66" y="50" width="6" height="1" fill="#d39b69"/>
<rect x="72" y="50" width="3" height="1" fill="#2a180f"/>
<rect x="24" y="51" width="3" height="1" fill="#2a180f"/>
<rect x="27" y="51" width="3" height="1" fill="#835233"/>
<rect x="30" y="51" width="6" height="1" fill="#b07549"/>
<rect x="36" y="51" width="6" height="1" fill="#76523b"/>
<rect x="42" y="51" width="3" height="1" fill="#b07549"/>
<rect x="45" y="51" width="15" height="1" fill="#d39b69"/>
<rect x="60" y="51" width="6" height="1" fill="#8d6a50"/>
<rect x="66" y="51" width="6" height="1" fill="#d39b69"/>
<rect x="72" y="51" width="3" height="1" fill="#2a180f"/>
<rect x="24" y="52" width="3" height="1" fill="#2a180f"/>
<rect x="27" y="52" width="3" height="1" fill="#835233"/>
<rect x="30" y="52" width="6" height="1" fill="#b07549"/>
<rect x="36" y="52" width="6" height="1" fill="#76523b"/>
<rect x="42" y="52" width="3" height="1" fill="#b07549"/>
<rect x="45" y="52" width="15" height="1" fill="#d39b69"/>
<rect x="60" y="52" width="6" height="1" fill="#8d6a50"/>
<rect x="66" y="52" width="6" height="1" fill="#d39b69"/>
<rect x="72" y="52" width="3" height="1" fill="#2a180f"/>
<rect x="24" y="53" width="3" height="1" fill="#2a180f"/>
<rect x="27" y="53" width="3" height="1" fill="#835233"/>
<rect x="30" y="53" width="6" height="1" fill="#b07549"/>
<rect x="36" y="53" width="6" height="1" fill="#76523b"/>
<rect x="42" y="53" width="3" height="1" fill="#b07549"/>
<rect x="45" y="53" width="15" height="1" fill="#d39b69"/>
<rect x="60" y="53" width="6" height="1" fill="#8d6a50"/>
<rect x="66" y="53" width="6" height="1" fill="#d39b69"/>
<rect x="72" y="53" width="3" height="1" fill="#2a180f"/>
<rect x="27" y="54" width="3" height="1" fill="#2a180f"/>
<rect x="30" y="54" width="9" height="1" fill="#c27453"/>
<rect x="39" y="54" width="6" height="1" fill="#b07549"/>
<rect x="45" y="54" width="15" height="1" fill="#d39b69"/>
<rect x="60" y="54" width="9" height="1" fill="#dc906b"/>
<rect x="69" y="54" width="3" height="1" fill="#2a180f"/>
<rect x="27" y="55" width="3" height="1" fill="#2a180f"/>
<rect x="30" y="55" width="9" height="1" fill="#c27453"/>
<rect x="39" y="55" width="6" height="1" fill="#b07549"/>
<rect x="45" y="55" width="15" height="1" fill="#d39b69"/>
<rect x="60" y="55" width="9" height="1" fill="#dc906b"/>
<rect x="69" y="55" width="3" height="1" fill="#2a180f"/>
<rect x="27" y="56" width="3" height="1" fill="#2a180f"/>
<rect x="30" y="56" width="9" height="1" fill="#c27453"/>
<rect x="39" y="56" width="6" height="1" fill="#b07549"/>
<rect x="45" y="56" width="15" height="1" fill="#d39b69"/>
<rect x="60" y="56" width="9" height="1" fill="#dc906b"/>
<rect x="69" y="56" width="3" height="1" fill="#2a180f"/>
<rect x="27" y="57" width="3" height="1" fill="#2a180f"/>
<rect x="30" y="57" width="9" height="1" fill="#c27453"/>
<rect x="39" y="57" width="3" height="1" fill="#b07549"/>
<rect x="42" y="57" width="18" height="1" fill="#d39b69"/>
<rect x="60" y="57" width="9" height="1" fill="#dc906b"/>
<rect x="69" y="57" width="3" height="1" fill="#2a180f"/>
<rect x="27" y="58" width="3" height="1" fill="#2a180f"/>
<rect x="30" y="58" width="9" height="1" fill="#c27453"/>
<rect x="39" y="58" width="3" height="1" fill="#b07549"/>
<rect x="42" y="58" width="18" height="1" fill="#d39b69"/>
<rect x="60" y="58" width="9" height="1" fill="#dc906b"/>
<rect x="69" y="58" width="3" height="1" fill="#2a180f"/>
<rect x="27" y="59" width="3" height="1" fill="#2a180f"/>
<rect x="30" y="59" width="9" height="1" fill="#c27453"/>
<rect x="39" y="59" width="3" height="1" fill="#b07549"/>
<rect x="42" y="59" width="18" height="1" fill="#d39b69"/>
<rect x="60" y="59" width="9" height="1" fill="#dc906b"/>
<rect x="69" y="59" width="3" height="1" fill="#2a180f"/>
<rect x="30" y="60" width="3" height="1" fill="#2a180f"/>
<rect x="33" y="60" width="6" height="1" fill="#b07549"/>
<rect x="39" y="60" width="3" height="1" fill="#6d4329"/>
<rect x="42" y="60" width="24" height="1" fill="#d39b69"/>
<rect x="66" y="60" width="3" height="1" fill="#2a180f"/>
<rect x="30" y="61" width="3" height="1" fill="#2a180f"/>
<rect x="33" y="61" width="6" height="1" fill="#b07549"/>
<rect x="39" y="61" width="3" height="1" fill="#6d4329"/>
<rect x="42" y="61" width="24" height="1" fill="#d39b69"/>
<rect x="66" y="61" width="3" height="1" fill="#2a180f"/>
<rect x="30" y="62" width="3" height="1" fill="#2a180f"/>
<rect x="33" y="62" width="6" height="1" fill="#b07549"/>
<rect x="39" y="62" width="3" height="1" fill="#6d4329"/>
<rect x="42" y="62" width="24" height="1" fill="#d39b69"/>
<rect x="66" y="62" width="3" height="1" fill="#2a180f"/>
<rect x="33" y="63" width="3" height="1" fill="#2a180f"/>
<rect x="36" y="63" width="3" height="1" fill="#ffe4c8"/>
<rect x="39" y="63" width="3" height="1" fill="#5c3721"/>
<rect x="42" y="63" width="3" height="1" fill="#633c24"/>
<rect x="45" y="63" width="18" height="1" fill="#d39b69"/>
<rect x="63" y="63" width="3" height="1" fill="#2a180f"/>
<rect x="33" y="64" width="3" height="1" fill="#2a180f"/>
<rect x="36" y="64" width="3" height="1" fill="#ffe4c8"/>
<rect x="39" y="64" width="3" height="1" fill="#5c3721"/>
<rect x="42" y="64" width="3" height="1" fill="#633c24"/>
<rect x="45" y="64" width="18" height="1" fill="#d39b69"/>
<rect x="63" y="64" width="3" height="1" fill="#2a180f"/>
<rect x="33" y="65" width="3" height="1" fill="#2a180f"/>
<rect x="36" y="65" width="3" height="1" fill="#ffe4c8"/>
<rect x="39" y="65" width="3" height="1" fill="#5c3721"/>
<rect x="42" y="65" width="3" height="1" fill="#633c24"/>
<rect x="45" y="65" width="18" height="1" fill="#d39b69"/>
<rect x="63" y="65" width="3" height="1" fill="#2a180f"/>
<rect x="36" y="66" width="3" height="1" fill="#5c3721"/>
<rect x="39" y="66" width="3" height="1" fill="#4b2c19"/>
<rect x="42" y="66" width="3" height="1" fill="#5c3721"/>
<rect x="45" y="66" width="3" height="1" fill="#6d4329"/>
<rect x="48" y="66" width="12" height="1" fill="#d39b69"/>
<rect x="60" y="66" width="3" height="1" fill="#6d4329"/>
<rect x="36" y="67" width="3" height="1" fill="#5c3721"/>
<rect x="39" y="67" width="3" height="1" fill="#4b2c19"/>
<rect x="42" y="67" width="3" height="1" fill="#5c3721"/>
<rect x="45" y="67" width="3" height="1" fill="#6d4329"/>
<rect x="48" y="67" width="12" height="1" fill="#d39b69"/>
<rect x="60" y="67" width="3" height="1" fill="#6d4329"/>
<rect x="36" y="68" width="3" height="1" fill="#5c3721"/>
<rect x="39" y="68" width="3" height="1" fill="#4b2c19"/>
<rect x="42" y="68" width="3" height="1" fill="#5c3721"/>
<rect x="45" y="68" width="3" height="1" fill="#6d4329"/>
<rect x="48" y="68" width="12" height="1" fill="#d39b69"/>
<rect x="60" y="68" width="3" height="1" fill="#6d4329"/>
<rect x="39" y="69" width="3" height="1" fill="#5c3721"/>
<rect x="42" y="69" width="3" height="1" fill="#633c24"/>
<rect x="45" y="69" width="12" height="1" fill="#d39b69"/>
<rect x="57" y="69" width="3" height="1" fill="#ffe4c8"/>
<rect x="39" y="70" width="3" height="1" fill="#5c3721"/>
<rect x="42" y="70" width="3" height="1" fill="#633c24"/>
<rect x="45" y="70" width="12" height="1" fill="#d39b69"/>
<rect x="57" y="70" width="3" height="1" fill="#ffe4c8"/>
<rect x="39" y="71" width="3" height="1" fill="#5c3721"/>
<rect x="42" y="71" width="3" height="1" fill="#633c24"/>
<rect x="45" y="71" width="12" height="1" fill="#d39b69"/>
<rect x="57" y="71" width="3" height="1" fill="#ffe4c8"/>
<rect x="42" y="72" width="6" height="1" fill="#2a180f"/>
<rect x="48" y="72" width="3" height="1" fill="#d39b69"/>
<rect x="51" y="72" width="3" height="1" fill="#2a180f"/>
<rect x="54" y="72" width="3" height="1" fill="#6d4329"/>
<rect x="42" y="73" width="6" height="1" fill="#2a180f"/>
<rect x="48" y="73" width="3" height="1" fill="#d39b69"/>
<rect x="51" y="73" width="3" height="1" fill="#2a180f"/>
<rect x="54" y="73" width="3" height="1" fill="#6d4329"/>
<rect x="42" y="74" width="6" height="1" fill="#2a180f"/>
<rect x="48" y="74" width="3" height="1" fill="#d39b69"/>
<rect x="51" y="74" width="3" height="1" fill="#2a180f"/>
<rect x="54" y="74" width="3" height="1" fill="#6d4329"/>
<rect x="48" y="75" width="3" height="1" fill="#2a180f"/>
<rect x="48" y="76" width="3" height="1" fill="#2a180f"/>
<rect x="48" y="77" width="3" height="1" fill="#2a180f"/>
</svg>