<svg viewBox="0 0 96 96" width="96" height="96" style="image-rendering:pixelated" xmlns="http://www.w3.org/2000/svg">
<rect x="36" y="27" width="27" height="1" fill="#2a190f"/>
<rect x="36" y="28" width="27" height="1" fill="#2a190f"/>
<rect x="36" y="29" width="27" height="1" fill="#2a190f"/>
<rect x="30" y="30" width="6" height="1" fill="#2a190f"/>
<rect x="36" y="30" width="12" height="1" fill="#7c4f2f"/>
<rect x="48" y="30" width="15" height="1" fill="#a07045"/>
<rect x="63" y="30" width="6" height="1" fill="#2a190f"/>
<rect x="30" y="31" width="6" height="1" fill="#2a190f"/>
<rect x="36" y="31" width="12" height="1" fill="#7c4f2f"/>
<rect x="48" y="31" width="15" height="1" fill="#a07045"/>
<rect x="63" y="31" width="6" height="1" fill="#2a190f"/>
<rect x="30" y="32" width="6" height="1" fill="#2a190f"/>
<rect x="36" y="32" width="12" height="1" fill="#7c4f2f"/>
<rect x="48" y="32" width="15" height="1" fill="#a07045"/>
<rect x="63" y="32" width="6" height="1" fill="#2a190f"/>
<rect x="24" y="33" width="6" height="1" fill="#2a190f"/>
<rect x="30" y="33" width="9" height="1" fill="#7c4f2f"/>
<rect x="39" y="33" width="30" height="1" fill="#a07045"/>
<rect x="69" y="33" width="6" height="1" fill="#2a190f"/>
<rect x="24" y="34" width="6" height="1" fill="#2a190f"/>
<rect x="30" y="34" width="9" height="1" fill="#7c4f2f"/>
<rect x="39" y="34" width="30" height="1" fill="#a07045"/>
<rect x="69" y="34" width="6" height="1" fill="#2a190f"/>
<rect x="24" y="35" width="6" height="1" fill="#2a190f"/>
<rect x="30" y="35" width="9" height="1" fill="#7c4f2f"/>
<rect x="39" y="35" width="30" height="1" fill="#a07045"/>
<rect x="69" y="35" width="6" height="1" fill="#2a190f"/>
<rect x="21" y="36" width="3" height="1" fill="#2a190f"/>
<rect x="24" y="36" width="12" height="1" fill="#7c4f2f"/>
<rect x="36" y="36" width="39" height="1" fill="#a07045"/>
<rect x="75" y="36" width="3" height="1" fill="#2a190f"/>
<rect x="21" y="37" width="3" height="1" fill="#2a190f"/>
<rect x="24" y="37" width="12" height="1" fill="#7c4f2f"/>
<rect x="36" y="37" width="39" height="1" fill="#a07045"/>
<rect x="75" y="37" width="3" height="1" fill="#2a190f"/>
<rect x="21" y="38" width="3" height="1" fill="#2a190f"/>
<rect x="24" y="38" width="12" height="1" fill="#7c4f2f"/>
<rect x="36" y="38" width="39" height="1" fill="#a07045"/>
<rect x="75" y="38" width="3" height="1" fill="#2a190f"/>
<rect x="18" y="39" width="3" height="1" fill="#2a190f"/>
<rect x="21" y="39" width="12" height="1" fill="#7c4f2f"/>
<rect x="33" y="39" width="3" height="1" fill="#f0d3ad"/>
<rect x="36" y="39" width="3" height="1" fill="#c69263"/>
<rect x="39" y="39" width="21" height="1" fill="#a07045"/>
<rect x="60" y="39" width="18" height="1" fill="#c69263"/>
<rect x="78" y="39" width="3" height="1" fill="#2a190f"/>
<rect x="18" y="40" width="3" height="1" fill="#2a190f"/>
<rect x="21" y="40" width="12" height="1" fill="#7c4f2f"/>
<rect x="33" y="40" width="3" height="1" fill="#f0d3ad"/>
<rect x="36" y="40" width="3" height="1" fill="#c69263"/>
<rect x="39" y="40" width="21" height="1" fill="#a07045"/>
<rect x="60" y="40" width="18" height="1" fill="#c69263"/>
<rect x="78" y="40" width="3" height="1" fill="#2a190f"/>
<rect x="18" y="41" width="3" height="1" fill="#2a190f"/>
<rect x="21" y="41" width="12" height="1" fill="#7c4f2f"/>
<rect x="33" y="41" width="3" height="1" fill="#f0d3ad"/>
<rect x="36" y="41" width="3" height="1" fill="#c69263"/>
<rect x="39" y="41" width="21" height="1" fill="#a07045"/>
<rect x="60" y="41" width="18" height="1" fill="#c69263"/>
<rect x="78" y="41" width="3" height="1" fill="#2a190f"/>
<rect x="15" y="42" width="3" height="1" fill="#2a190f"/>
<rect x="18" y="42" width="12" height="1" fill="#7c4f2f"/>
<rect x="30" y="42" width="3" height="1" fill="#f0d3ad"/>
<rect x="33" y="42" width="21" height="1" fill="#a07045"/>
<rect x="54" y="42" width="27" height="1" fill="#c69263"/>
<rect x="81" y="42" width="3" height="1" fill="#2a190f"/>
<rect x="15" y="43" width="3" height="1" fill="#2a190f"/>
<rect x="18" y="43" width="12" height="1" fill="#7c4f2f"/>
<rect x="30" y="43" width="3" height="1" fill="#f0d3ad"/>
<rect x="33" y="43" width="21" height="1" fill="#a07045"/>
<rect x="54" y="43" width="27" height="1" fill="#c69263"/>
<rect x="81" y="43" width="3" height="1" fill="#2a190f"/>
<rect x="15" y="44" width="3" height="1" fill="#2a190f"/>
<rect x="18" y="44" width="12" height="1" fill="#7c4f2f"/>
<rect x="30" y="44" width="3" height="1" fill="#f0d3ad"/>
<rect x="33" y="44" width="21" height="1" fill="#a07045"/>
<rect x="54" y="44" width="27" height="1" fill="#c69263"/>
<rect x="81" y="44" width="3" height="1" fill="#2a190f"/>
<rect x="15" y="45" width="3" height="1" fill="#2a190f"/>
<rect x="18" y="45" width="15" height="1" fill="#7c4f2f"/>
<rect x="33" y="45" width="15" height="1" fill="#a07045"/>
<rect x="48" y="45" width="33" height="1" fill="#c69263"/>
<rect x="81" y="45" width="3" height="1" fill="#2a190f"/>
<rect x="15" y="46" width="3" height="1" fill="#2a190f"/>
<rect x="18" y="46" width="15" height="1" fill="#7c4f2f"/>
<rect x="33" y="46" width="15" height="1" fill="#a07045"/>
<rect x="48" y="46" width="33" height="1" fill="#c69263"/>
<rect x="81" y="46" width="3" height="1" fill="#2a190f"/>
<rect x="15" y="47" width="3" height="1" fill="#2a190f"/>
<rect x="18" y="47" width="15" height="1" fill="#7c4f2f"/>
<rect x="33" y="47" width="15" height="1" fill="#a07045"/>
<rect x="48" y="47" width="33" height="1" fill="#c69263"/>
<rect x="81" y="47" width="3" height="1" fill="#2a190f"/>
<rect x="15" y="48" width="3" height="1" fill="#2a190f"/>
<rect x="18" y="48" width="12" height="1" fill="#7c4f2f"/>
<rect x="30" y="48" width="18" height="1" fill="#a07045"/>
<rect x="48" y="48" width="33" height="1" fill="#c69263"/>
<rect x="81" y="48" width="3" height="1" fill="#2a190f"/>
<rect x="15" y="49" width="3" height="1" fill="#2a190f"/>
<rect x="18" y="49" width="12" height="1" fill="#7c4f2f"/>
<rect x="30" y="49" width="18" height="1" fill="#a07045"/>
<rect x="48" y="49" width="33" height="1" fill="#c69263"/>
<rect x="81" y="49" width="3" height="1" fill="#2a190f"/>
<rect x="15" y="50" width="3" height="1" fill="#2a190f"/>
<rect x="18" y="50" width="12" height="1" fill="#7c4f2f"/>
<rect x="30" y="50" width="18" height="1" fill="#a07045"/>
<rect x="48" y="50" width="33" height="1" fill="#c69263"/>
<rect x="81" y="50" width="3" height="1" fill="#2a190f"/>
<rect x="12" y="51" width="3" height="1" fill="#2a190f"/>
<rect x="15" y="51" width="3" height="1" fill="#4a2d1a"/>
<rect x="18" y="51" width="12" height="1" fill="#7c4f2f"/>
<rect x="30" y="51" width="15" height="1" fill="#a07045"/>
<rect x="45" y="51" width="39" height="1" fill="#c69263"/>
<rect x="84" y="51" width="3" height="1" fill="#2a190f"/>
<rect x="12" y="52" width="3" height="1" fill="#2a190f"/>
<rect x="15" y="52" width="3" height="1" fill="#4a2d1a"/>
<rect x="18" y="52" width="12" height="1" fill="#7c4f2f"/>
<rect x="30" y="52" width="15" height="1" fill="#a07045"/>
<rect x="45" y="52" width="39" height="1" fill="#c69263"/>
<rect x="84" y="52" width="3" height="1" fill="#2a190f"/>
<rect x="12" y="53" width="3" height="1" fill="#2a190f"/>
<rect x="15" y="53" width="3" height="1" fill="#4a2d1a"/>
<rect x="18" y="53" width="12" height="1" fill="#7c4f2f"/>
<rect x="30" y="53" width="15" height="1" fill="#a07045"/>
<rect x="45" y="53" width="39" height="1" fill="#c69263"/>
<rect x="84" y="53" width="3" height="1" fill="#2a190f"/>
<rect x="12" y="54" width="3" height="1" fill="#2a190f"/>
<rect x="15" y="54" width="3" height="1" fill="#4a2d1a"/>
<rect x="18" y="54" width="12" height="1" fill="#7c4f2f"/>
<rect x="30" y="54" width="12" height="1" fill="#a07045"/>
<rect x="42" y="54" width="24" height="1" fill="#c69263"/>
<rect x="66" y="54" width="3" height="1" fill="#f0d3ad"/>
<rect x="69" y="54" width="15" height="1" fill="#c69263"/>
<rect x="84" y="54" width="3" height="1" fill="#2a190f"/>
<rect x="12" y="55" width="3" height="1" fill="#2a190f"/>
<rect x="15" y="55" width="3" height="1" fill="#4a2d1a"/>
<rect x="18" y="55" width="12" height="1" fill="#7c4f2f"/>
<rect x="30" y="55" width="12" height="1" fill="#a07045"/>
<rect x="42" y="55" width="24" height="1" fill="#c69263"/>
<rect x="66" y="55" width="3" height="1" fill="#f0d3ad"/>
<rect x="69" y="55" width="15" height="1" fill="#c69263"/>
<rect x="84" y="55" width="3" height="1" fill="#2a190f"/>
<rect x="12" y="56" width="3" height="1" fill="#2a190f"/>
<rect x="15" y="56" width="3" height="1" fill="#4a2d1a"/>
<rect x="18" y="56" width="12" height="1" fill="#7c4f2f"/>
<rect x="30" y="56" width="12" height="1" fill="#a07045"/>
<rect x="42" y="56" width="24" height="1" fill="#c69263"/>
<rect x="66" y="56" width="3" height="1" fill="#f0d3ad"/>
<rect x="69" y="56" width="15" height="1" fill="#c69263"/>
<rect x="84" y="56" width="3" height="1" fill="#2a190f"/>
<rect x="12" y="57" width="3" height="1" fill="#2a190f"/>
<rect x="15" y="57" width="3" height="1" fill="#4a2d1a"/>
<rect x="18" y="57" width="12" height="1" fill="#7c4f2f"/>
<rect x="30" y="57" width="3" height="1" fill="#a07045"/>
<rect x="33" y="57" width="9" height="1" fill="#0b1020"/>
<rect x="42" y="57" width="15" height="1" fill="#c69263"/>
<rect x="57" y="57" width="9" height="1" fill="#0b1020"/>
<rect x="66" y="57" width="9" height="1" fill="#f0d3ad"/>
<rect x="75" y="57" width="9" height="1" fill="#c69263"/>
<rect x="84" y="57" width="3" height="1" fill="#2a190f"/>
<rect x="12" y="58" width="3" height="1" fill="#2a190f"/>
<rect x="15" y="58" width="3" height="1" fill="#4a2d1a"/>
<rect x="18" y="58" width="12" height="1" fill="#7c4f2f"/>
<rect x="30" y="58" width="3" height="1" fill="#a07045"/>
<rect x="33" y="58" width="9" height="1" fill="#0b1020"/>
<rect x="42" y="58" width="15" height="1" fill="#c69263"/>
<rect x="57" y="58" width="9" height="1" fill="#0b1020"/>
<rect x="66" y="58" width="9" height="1" fill="#f0d3ad"/>
<rect x="75" y="58" width="9" height="1" fill="#c69263"/>
<rect x="84" y="58" width="3" height="1" fill="#2a190f"/>
<rect x="12" y="59" width="3" height="1" fill="#2a190f"/>
<rect x="15" y="59" width="3" height="1" fill="#4a2d1a"/>
<rect x="18" y="59" width="12" height="1" fill="#7c4f2f"/>
<rect x="30" y="59" width="3" height="1" fill="#a07045"/>
<rect x="33" y="59" width="9" height="1" fill="#0b1020"/>
<rect x="42" y="59" width="15" height="1" fill="#c69263"/>
<rect x="57" y="59" width="9" height="1" fill="#0b1020"/>
<rect x="66" y="59" width="9" height="1" fill="#f0d3ad"/>
<rect x="75" y="59" width="9" height="1" fill="#c69263"/>
<rect x="84" y="59" width="3" height="1" fill="#2a190f"/>
<rect x="15" y="60" width="3" height="1" fill="#2a190f"/>
<rect x="18" y="60" width="3" height="1" fill="#4a2d1a"/>
<rect x="21" y="60" width="6" height="1" fill="#7c4f2f"/>
<rect x="27" y="60" width="9" height="1" fill="#a07045"/>
<rect x="36" y="60" width="3" height="1" fill="#483025"/>
<rect x="39" y="60" width="3" height="1" fill="#6c4e38"/>
<rect x="42" y="60" width="18" height="1" fill="#c69263"/>
<rect x="60" y="60" width="3" height="1" fill="#a08f7c"/>
<rect x="63" y="60" width="3" height="1" fill="#3e2920"/>
<rect x="66" y="60" width="3" height="1" fill="#8a5a3b"/>
<rect x="69" y="60" width="9" height="1" fill="#f0d3ad"/>
<rect x="78" y="60" width="3" height="1" fill="#c69263"/>
<rect x="81" y="60" width="3" height="1" fill="#2a190f"/>
<rect x="15" y="61" width="3" height="1" fill="#2a190f"/>
<rect x="18" y="61" width="3" height="1" fill="#4a2d1a"/>
<rect x="21" y="61" width="6" height="1" fill="#7c4f2f"/>
<rect x="27" y="61" width="9" height="1" fill="#a07045"/>
<rect x="36" y="61" width="3" height="1" fill="#483025"/>
<rect x="39" y="61" width="3" height="1" fill="#6c4e38"/>
<rect x="42" y="61" width="18" height="1" fill="#c69263"/>
<rect x="60" y="61" width="3" height="1" fill="#a08f7c"/>
<rect x="63" y="61" width="3" height="1" fill="#3e2920"/>
<rect x="66" y="61" width="3" height="1" fill="#8a5a3b"/>
<rect x="69" y="61" width="9" height="1" fill="#f0d3ad"/>
<rect x="78" y="61" width="3" height="1" fill="#c69263"/>
<rect x="81" y="61" width="3" height="1" fill="#2a190f"/>
<rect x="15" y="62" width="3" height="1" fill="#2a190f"/>
<rect x="18" y="62" width="3" height="1" fill="#4a2d1a"/>
<rect x="21" y="62" width="6" height="1" fill="#7c4f2f"/>
<rect x="27" y="62" width="9" height="1" fill="#a07045"/>
<rect x="36" y="62" width="3" height="1" fill="#483025"/>
<rect x="39" y="62" width="3" height="1" fill="#6c4e38"/>
<rect x="42" y="62" width="18" height="1" fill="#c69263"/>
<rect x="60" y="62" width="3" height="1" fill="#a08f7c"/>
<rect x="63" y="62" width="3" height="1" fill="#3e2920"/>
<rect x="66" y="62" width="3" height="1" fill="#8a5a3b"/>
<rect x="69" y="62" width="9" height="1" fill="#f0d3ad"/>
<rect x="78" y="62" width="3" height="1" fill="#c69263"/>
<rect x="81" y="62" width="3" height="1" fill="#2a190f"/>
<rect x="15" y="63" width="3" height="1" fill="#2a190f"/>
<rect x="18" y="63" width="3" height="1" fill="#4a2d1a"/>
<rect x="21" y="63" width="3" height="1" fill="#7c4f2f"/>
<rect x="24" y="63" width="3" height="1" fill="#9b5840"/>
<rect x="27" y="63" width="6" height="1" fill="#b67050"/>
<rect x="33" y="63" width="3" height="1" fill="#f0d3ad"/>
<rect x="36" y="63" width="3" height="1" fill="#593720"/>
<rect x="39" y="63" width="3" height="1" fill="#5f3b23"/>
<rect x="42" y="63" width="12" height="1" fill="#c69263"/>
<rect x="54" y="63" width="3" height="1" fill="#8a5a3b"/>
<rect x="57" y="63" width="3" height="1" fill="#684127"/>
<rect x="60" y="63" width="3" height="1" fill="#593720"/>
<rect x="63" y="63" width="3" height="1" fill="#4a2d1a"/>
<rect x="66" y="63" width="3" height="1" fill="#814634"/>
<rect x="69" y="63" width="3" height="1" fill="#8c4d3a"/>
<rect x="72" y="63" width="3" height="1" fill="#f2ba9e"/>
<rect x="75" y="63" width="3" height="1" fill="#f0d3ad"/>
<rect x="78" y="63" width="3" height="1" fill="#c69263"/>
<rect x="81" y="63" width="3" height="1" fill="#2a190f"/>
<rect x="15" y="64" width="3" height="1" fill="#2a190f"/>
<rect x="18" y="64" width="3" height="1" fill="#4a2d1a"/>
<rect x="21" y="64" width="3" height="1" fill="#7c4f2f"/>
<rect x="24" y="64" width="3" height="1" fill="#9b5840"/>
<rect x="27" y="64" width="6" height="1" fill="#b67050"/>
<rect x="33" y="64" width="3" height="1" fill="#f0d3ad"/>
<rect x="36" y="64" width="3" height="1" fill="#593720"/>
<rect x="39" y="64" width="3" height="1" fill="#5f3b23"/>
<rect x="42" y="64" width="12" height="1" fill="#c69263"/>
<rect x="54" y="64" width="3" height="1" fill="#8a5a3b"/>
<rect x="57" y="64" width="3" height="1" fill="#684127"/>
<rect x="60" y="64" width="3" height="1" fill="#593720"/>
<rect x="63" y="64" width="3" height="1" fill="#4a2d1a"/>
<rect x="66" y="64" width="3" height="1" fill="#814634"/>
<rect x="69" y="64" width="3" height="1" fill="#8c4d3a"/>
<rect x="72" y="64" width="3" height="1" fill="#f2ba9e"/>
<rect x="75" y="64" width="3" height="1" fill="#f0d3ad"/>
<rect x="78" y="64" width="3" height="1" fill="#c69263"/>
<rect x="81" y="64" width="3" height="1" fill="#2a190f"/>
<rect x="15" y="65" width="3" height="1" fill="#2a190f"/>
<rect x="18" y="65" width="3" height="1" fill="#4a2d1a"/>
<rect x="21" y="65" width="3" height="1" fill="#7c4f2f"/>
<rect x="24" y="65" width="3" height="1" fill="#9b5840"/>
<rect x="27" y="65" width="6" height="1" fill="#b67050"/>
<rect x="33" y="65" width="3" height="1" fill="#f0d3ad"/>
<rect x="36" y="65" width="3" height="1" fill="#593720"/>
<rect x="39" y="65" width="3" height="1" fill="#5f3b23"/>
<rect x="42" y="65" width="12" height="1" fill="#c69263"/>
<rect x="54" y="65" width="3" height="1" fill="#8a5a3b"/>
<rect x="57" y="65" width="3" height="1" fill="#684127"/>
<rect x="60" y="65" width="3" height="1" fill="#593720"/>
<rect x="63" y="65" width="3" height="1" fill="#4a2d1a"/>
<rect x="66" y="65" width="3" height="1" fill="#814634"/>
<rect x="69" y="65" width="3" height="1" fill="#8c4d3a"/>
<rect x="72" y="65" width="3" height="1" fill="#f2ba9e"/>
<rect x="75" y="65" width="3" height="1" fill="#f0d3ad"/>
<rect x="78" y="65" width="3" height="1" fill="#c69263"/>
<rect x="81" y="65" width="3" height="1" fill="#2a190f"/>
<rect x="15" y="66" width="3" height="1" fill="#2a190f"/>
<rect x="18" y="66" width="3" height="1" fill="#4a2d1a"/>
<rect x="21" y="66" width="3" height="1" fill="#7c4f2f"/>
<rect x="24" y="66" width="3" height="1" fill="#9b5840"/>
<rect x="27" y="66" width="3" height="1" fill="#b67050"/>
<rect x="30" y="66" width="3" height="1" fill="#a66049"/>
<rect x="33" y="66" width="3" height="1" fill="#593720"/>
<rect x="36" y="66" width="3" height="1" fill="#4a2d1a"/>
<rect x="39" y="66" width="3" height="1" fill="#593720"/>
<rect x="42" y="66" width="3" height="1" fill="#684127"/>
<rect x="45" y="66" width="12" height="1" fill="#c69263"/>
<rect x="57" y="66" width="3" height="1" fill="#f0d3ad"/>
<rect x="60" y="66" width="3" height="1" fill="#5f3b23"/>
<rect x="63" y="66" width="3" height="1" fill="#593720"/>
<rect x="66" y="66" width="3" height="1" fill="#854937"/>
<rect x="69" y="66" width="6" height="1" fill="#f2ba9e"/>
<rect x="75" y="66" width="3" height="1" fill="#f0d3ad"/>
<rect x="78" y="66" width="3" height="1" fill="#c69263"/>
<rect x="81" y="66" width="3" height="1" fill="#2a190f"/>
<rect x="15" y="67" width="3" height="1" fill="#2a190f"/>
<rect x="18" y="67" width="3" height="1" fill="#4a2d1a"/>
<rect x="21" y="67" width="3" height="1" fill="#7c4f2f"/>
<rect x="24" y="67" width="3" height="1" fill="#9b5840"/>
<rect x="27" y="67" width="3" height="1" fill="#b67050"/>
<rect x="30" y="67" width="3" height="1" fill="#a66049"/>
<rect x="33" y="67" width="3" height="1" fill="#593720"/>
<rect x="36" y="67" width="3" height="1" fill="#4a2d1a"/>
<rect x="39" y="67" width="3" height="1" fill="#593720"/>
<rect x="42" y="67" width="3" height="1" fill="#684127"/>
<rect x="45" y="67" width="12" height="1" fill="#c69263"/>
<rect x="57" y="67" width="3" height="1" fill="#f0d3ad"/>
<rect x="60" y="67" width="3" height="1" fill="#5f3b23"/>
<rect x="63" y="67" width="3" height="1" fill="#593720"/>
<rect x="66" y="67" width="3" height="1" fill="#854937"/>
<rect x="69" y="67" width="6" height="1" fill="#f2ba9e"/>
<rect x="75" y="67" width="3" height="1" fill="#f0d3ad"/>
<rect x="78" y="67" width="3" height="1" fill="#c69263"/>
<rect x="81" y="67" width="3" height="1" fill="#2a190f"/>
<rect x="15" y="68" width="3" height="1" fill="#2a190f"/>
<rect x="18" y="68" width="3" height="1" fill="#4a2d1a"/>
<rect x="21" y="68" width="3" height="1" fill="#7c4f2f"/>
<rect x="24" y="68" width="3" height="1" fill="#9b5840"/>
<rect x="27" y="68" width="3" height="1" fill="#b67050"/>
<rect x="30" y="68" width="3" height="1" fill="#a66049"/>
<rect x="33" y="68" width="3" height="1" fill="#593720"/>
<rect x="36" y="68" width="3" height="1" fill="#4a2d1a"/>
<rect x="39" y="68" width="3" height="1" fill="#593720"/>
<rect x="42" y="68" width="3" height="1" fill="#684127"/>
<rect x="45" y="68" width="12" height="1" fill="#c69263"/>
<rect x="57" y="68" width="3" height="1" fill="#f0d3ad"/>
<rect x="60" y="68" width="3" height="1" fill="#5f3b23"/>
<rect x="63" y="68" width="3" height="1" fill="#593720"/>
<rect x="66" y="68" width="3" height="1" fill="#854937"/>
<rect x="69" y="68" width="6" height="1" fill="#f2ba9e"/>
<rect x="75" y="68" width="3" height="1" fill="#f0d3ad"/>
<rect x="78" y="68" width="3" height="1" fill="#c69263"/>
<rect x="81" y="68" width="3" height="1" fill="#2a190f"/>
<rect x="18" y="69" width="3" height="1" fill="#2a190f"/>
<rect x="21" y="69" width="6" height="1" fill="#7c4f2f"/>
<rect x="27" y="69" width="6" height="1" fill="#a07045"/>
<rect x="33" y="69" width="3" height="1" fill="#5f3b23"/>
<rect x="36" y="69" width="3" height="1" fill="#593720"/>
<rect x="39" y="69" width="3" height="1" fill="#5f3b23"/>
<rect x="42" y="69" width="12" height="1" fill="#c69263"/>
<rect x="54" y="69" width="3" height="1" fill="#684127"/>
<rect x="57" y="69" width="3" height="1" fill="#c69263"/>
<rect x="60" y="69" width="3" height="1" fill="#f0d3ad"/>
<rect x="63" y="69" width="3" height="1" fill="#684127"/>
<rect x="66" y="69" width="12" height="1" fill="#f0d3ad"/>
<rect x="78" y="69" width="3" height="1" fill="#2a190f"/>
<rect x="18" y="70" width="3" height="1" fill="#2a190f"/>
<rect x="21" y="70" width="6" height="1" fill="#7c4f2f"/>
<rect x="27" y="70" width="6" height="1" fill="#a07045"/>
<rect x="33" y="70" width="3" height="1" fill="#5f3b23"/>
<rect x="36" y="70" width="3" height="1" fill="#593720"/>
<rect x="39" y="70" width="3" height="1" fill="#5f3b23"/>
<rect x="42" y="70" width="12" height="1" fill="#c69263"/>
<rect x="54" y="70" width="3" height="1" fill="#684127"/>
<rect x="57" y="70" width="3" height="1" fill="#c69263"/>
<rect x="60" y="70" width="3" height="1" fill="#f0d3ad"/>
<rect x="63" y="70" width="3" height="1" fill="#684127"/>
<rect x="66" y="70" width="12" height="1" fill="#f0d3ad"/>
<rect x="78" y="70" width="3" height="1" fill="#2a190f"/>
<rect x="18" y="71" width="3" height="1" fill="#2a190f"/>
<rect x="21" y="71" width="6" height="1" fill="#7c4f2f"/>
<rect x="27" y="71" width="6" height="1" fill="#a07045"/>
<rect x="33" y="71" width="3" height="1" fill="#5f3b23"/>
<rect x="36" y="71" width="3" height="1" fill="#593720"/>
<rect x="39" y="71" width="3" height="1" fill="#5f3b23"/>
<rect x="42" y="71" width="12" height="1" fill="#c69263"/>
<rect x="54" y="71" width="3" height="1" fill="#684127"/>
<rect x="57" y="71" width="3" height="1" fill="#c69263"/>
<rect x="60" y="71" width="3" height="1" fill="#f0d3ad"/>
<rect x="63" y="71" width="3" height="1" fill="#684127"/>
<rect x="66" y="71" width="12" height="1" fill="#f0d3ad"/>
<rect x="78" y="71" width="3" height="1" fill="#2a190f"/>
<rect x="21" y="72" width="3" height="1" fill="#2a190f"/>
<rect x="24" y="72" width="6" height="1" fill="#7c4f2f"/>
<rect x="30" y="72" width="6" height="1" fill="#a07045"/>
<rect x="36" y="72" width="3" height="1" fill="#8a5a3b"/>
<rect x="39" y="72" width="3" height="1" fill="#a07045"/>
<rect x="42" y="72" width="9" height="1" fill="#c69263"/>
<rect x="51" y="72" width="3" height="1" fill="#f0d3ad"/>
<rect x="54" y="72" width="3" height="1" fill="#593720"/>
<rect x="57" y="72" width="3" height="1" fill="#5f3b23"/>
<rect x="60" y="72" width="12" height="1" fill="#f0d3ad"/>
<rect x="72" y="72" width="3" height="1" fill="#8a5a3b"/>
<rect x="75" y="72" width="3" height="1" fill="#2a190f"/>
<rect x="21" y="73" width="3" height="1" fill="#2a190f"/>
<rect x="24" y="73" width="6" height="1" fill="#7c4f2f"/>
<rect x="30" y="73" width="6" height="1" fill="#a07045"/>
<rect x="36" y="73" width="3" height="1" fill="#8a5a3b"/>
<rect x="39" y="73" width="3" height="1" fill="#a07045"/>
<rect x="42" y="73" width="9" height="1" fill="#c69263"/>
<rect x="51" y="73" width="3" height="1" fill="#f0d3ad"/>
<rect x="54" y="73" width="3" height="1" fill="#593720"/>
<rect x="57" y="73" width="3" height="1" fill="#5f3b23"/>
<rect x="60" y="73" width="12" height="1" fill="#f0d3ad"/>
<rect x="72" y="73" width="3" height="1" fill="#8a5a3b"/>
<rect x="75" y="73" width="3" height="1" fill="#2a190f"/>
<rect x="21" y="74" width="3" height="1" fill="#2a190f"/>
<rect x="24" y="74" width="6" height="1" fill="#7c4f2f"/>
<rect x="30" y="74" width="6" height="1" fill="#a07045"/>
<rect x="36" y="74" width="3" height="1" fill="#8a5a3b"/>
<rect x="39" y="74" width="3" height="1" fill="#a07045"/>
<rect x="42" y="74" width="9" height="1" fill="#c69263"/>
<rect x="51" y="74" width="3" height="1" fill="#f0d3ad"/>
<rect x="54" y="74" width="3" height="1" fill="#593720"/>
<rect x="57" y="74" width="3" height="1" fill="#5f3b23"/>
<rect x="60" y="74" width="12" height="1" fill="#f0d3ad"/>
<rect x="72" y="74" width="3" height="1" fill="#8a5a3b"/>
<rect x="75" y="74" width="3" height="1" fill="#2a190f"/>
<rect x="24" y="75" width="6" height="1" fill="#2a190f"/>
<rect x="30" y="75" width="12" height="1" fill="#a07045"/>
<rect x="42" y="75" width="6" height="1" fill="#c69263"/>
<rect x="48" y="75" width="3" height="1" fill="#684127"/>
<rect x="51" y="75" width="3" height="1" fill="#593720"/>
<rect x="54" y="75" width="3" height="1" fill="#4a2d1a"/>
<rect x="57" y="75" width="3" height="1" fill="#593720"/>
<rect x="60" y="75" width="3" height="1" fill="#8a5a3b"/>
<rect x="63" y="75" width="6" height="1" fill="#c69263"/>
<rect x="69" y="75" width="6" height="1" fill="#2a190f"/>
<rect x="24" y="76" width="6" height="1" fill="#2a190f"/>
<rect x="30" y="76" width="12" height="1" fill="#a07045"/>
<rect x="42" y="76" width="6" height="1" fill="#c69263"/>
<rect x="48" y="76" width="3" height="1" fill="#684127"/>
<rect x="51" y="76" width="3" height="1" fill="#593720"/>
<rect x="54" y="76" width="3" height="1" fill="#4a2d1a"/>
<rect x="57" y="76" width="3" height="1" fill="#593720"/>
<rect x="60" y="76" width="3" height="1" fill="#8a5a3b"/>
<rect x="63" y="76" width="6" height="1" fill="#c69263"/>
<rect x="69" y="76" width="6" height="1" fill="#2a190f"/>
<rect x="24" y="77" width="6" height="1" fill="#2a190f"/>
<rect x="30" y="77" width="12" height="1" fill="#a07045"/>
<rect x="42" y="77" width="6" height="1" fill="#c69263"/>
<rect x="48" y="77" width="3" height="1" fill="#684127"/>
<rect x="51" y="77" width="3" height="1" fill="#593720"/>
<rect x="54" y="77" width="3" height="1" fill="#4a2d1a"/>
<rect x="57" y="77" width="3" height="1" fill="#593720"/>
<rect x="60" y="77" width="3" height="1" fill="#8a5a3b"/>
<rect x="63" y="77" width="6" height="1" fill="#c69263"/>
<rect x="69" y="77" width="6" height="1" fill="#2a190f"/>
<rect x="30" y="78" width="6" height="1" fill="#2a190f"/>
<rect x="36" y="78" width="9" height="1" fill="#a07045"/>
<rect x="45" y="78" width="6" height="1" fill="#c69263"/>
<rect x="51" y="78" width="3" height="1" fill="#5f3b23"/>
<rect x="54" y="78" width="3" height="1" fill="#593720"/>
<rect x="57" y="78" width="3" height="1" fill="#5f3b23"/>
<rect x="60" y="78" width="3" height="1" fill="#c69263"/>
<rect x="63" y="78" width="6" height="1" fill="#2a190f"/>
<rect x="30" y="79" width="6" height="1" fill="#2a190f"/>
<rect x="36" y="79" width="9" height="1" fill="#a07045"/>
<rect x="45" y="79" width="6" height="1" fill="#c69263"/>
<rect x="51" y="79" width="3" height="1" fill="#5f3b23"/>
<rect x="54" y="79" width="3" height="1" fill="#593720"/>
<rect x="57" y="79" width="3" height="1" fill="#5f3b23"/>
<rect x="60" y="79" width="3" height="1" fill="#c69263"/>
<rect x="63" y="79" width="6" height="1" fill="#2a190f"/>
<rect x="30" y="80" width="6" height="1" fill="#2a190f"/>
<rect x="36" y="80" width="9" height="1" fill="#a07045"/>
<rect x="45" y="80" width="6" height="1" fill="#c69263"/>
<rect x="51" y="80" width="3" height="1" fill="#5f3b23"/>
<rect x="54" y="80" width="3" height="1" fill="#593720"/>
<rect x="57" y="80" width="3" height="1" fill="#5f3b23"/>
<rect x="60" y="80" width="3" height="1" fill="#c69263"/>
<rect x="63" y="80" width="6" height="1" fill="#2a190f"/>
<rect x="36" y="81" width="18" height="1" fill="#2a190f"/>
<rect x="54" y="81" width="3" height="1" fill="#684127"/>
<rect x="57" y="81" width="6" height="1" fill="#2a190f"/>
<rect x="36" y="82" width="18" height="1" fill="#2a190f"/>
<rect x="54" y="82" width="3" height="1" fill="#684127"/>
<rect x="57" y="82" width="6" height="1" fill="#2a190f"/>
<rect x="36" y="83" width="18" height="1" fill="#2a190f"/>
<rect x="54" y="83" width="3" height="1" fill="#684127"/>
<rect x="57" y="83" width="6" height="1" fill="#2a190f"/>
</svg>