<svg viewBox="0 0 96 96" width="96" height="96" style="image-rendering:pixelated" xmlns="http://www.w3.org/2000/svg">
<rect x="36" y="27" width="27" height="1" fill="#2a190f"/>
<rect x="36" y="28" width="27" height="1" fill="#2a190f"/>
<rect x="36" y="29" width="27" height="1" fill="#2a190f"/>
<rect x="30" y="30" width="6" height="1" fill="#2a190f"/>
<rect x="36" y="30" width="3" height="1" fill="#986940"/>
<rect x="39" y="30" width="3" height="1" fill="#a07045"/>
<rect x="42" y="30" width="3" height="1" fill="#986940"/>
<rect x="45" y="30" width="3" height="1" fill="#a07045"/>
<rect x="48" y="30" width="3" height="1" fill="#986940"/>
<rect x="51" y="30" width="3" height="1" fill="#a07045"/>
<rect x="54" y="30" width="3" height="1" fill="#986940"/>
<rect x="57" y="30" width="3" height="1" fill="#a07045"/>
<rect x="60" y="30" width="3" height="1" fill="#986940"/>
<rect x="63" y="30" width="6" height="1" fill="#2a190f"/>
<rect x="30" y="31" width="6" height="1" fill="#2a190f"/>
<rect x="36" y="31" width="3" height="1" fill="#986940"/>
<rect x="39" y="31" width="3" height="1" fill="#a07045"/>
<rect x="42" y="31" width="3" height="1" fill="#986940"/>
<rect x="45" y="31" width="3" height="1" fill="#a07045"/>
<rect x="48" y="31" width="3" height="1" fill="#986940"/>
<rect x="51" y="31" width="3" height="1" fill="#a07045"/>
<rect x="54" y="31" width="3" height="1" fill="#986940"/>
<rect x="57" y="31" width="3" height="1" fill="#a07045"/>
<rect x="60" y="31" width="3" height="1" fill="#986940"/>
<rect x="63" y="31" width="6" height="1" fill="#2a190f"/>
<rect x="30" y="32" width="6" height="1" fill="#2a190f"/>
<rect x="36" y="32" width="3" height="1" fill="#986940"/>
<rect x="39" y="32" width="3" height="1" fill="#a07045"/>
<rect x="42" y="32" width="3" height="1" fill="#986940"/>
<rect x="45" y="32" width="3" height="1" fill="#a07045"/>
<rect x="48" y="32" width="3" height="1" fill="#986940"/>
<rect x="51" y="32" width="3" height="1" fill="#a07045"/>
<rect x="54" y="32" width="3" height="1" fill="#986940"/>
<rect x="57" y="32" width="3" height="1" fill="#a07045"/>
<rect x="60" y="32" width="3" height="1" fill="#986940"/>
<rect x="63" y="32" width="6" height="1" fill="#2a190f"/>
<rect x="24" y="33" width="6" height="1" fill="#2a190f"/>
<rect x="30" y="33" width="36" height="1" fill="#a07045"/>
<rect x="66" y="33" width="3" height="1" fill="#b88558"/>
<rect x="69" y="33" width="6" height="1" fill="#2a190f"/>
<rect x="24" y="34" width="6" height="1" fill="#2a190f"/>
<rect x="30" y="34" width="36" height="1" fill="#a07045"/>
<rect x="66" y="34" width="3" height="1" fill="#b88558"/>
<rect x="69" y="34" width="6" height="1" fill="#2a190f"/>
<rect x="24" y="35" width="6" height="1" fill="#2a190f"/>
<rect x="30" y="35" width="36" height="1" fill="#a07045"/>
<rect x="66" y="35" width="3" height="1" fill="#b88558"/>
<rect x="69" y="35" width="6" height="1" fill="#2a190f"/>
<rect x="21" y="36" width="3" height="1" fill="#2a190f"/>
<rect x="24" y="36" width="3" height="1" fill="#986940"/>
<rect x="27" y="36" width="42" height="1" fill="#a07045"/>
<rect x="69" y="36" width="3" height="1" fill="#b17f53"/>
<rect x="72" y="36" width="3" height="1" fill="#f0d3ad"/>
<rect x="75" y="36" width="3" height="1" fill="#2a190f"/>
<rect x="21" y="37" width="3" height="1" fill="#2a190f"/>
<rect x="24" y="37" width="3" height="1" fill="#986940"/>
<rect x="27" y="37" width="42" height="1" fill="#a07045"/>
<rect x="69" y="37" width="3" height="1" fill="#b17f53"/>
<rect x="72" y="37" width="3" height="1" fill="#f0d3ad"/>
<rect x="75" y="37" width="3" height="1" fill="#2a190f"/>
<rect x="21" y="38" width="3" height="1" fill="#2a190f"/>
<rect x="24" y="38" width="3" height="1" fill="#986940"/>
<rect x="27" y="38" width="42" height="1" fill="#a07045"/>
<rect x="69" y="38" width="3" height="1" fill="#b17f53"/>
<rect x="72" y="38" width="3" height="1" fill="#f0d3ad"/>
<rect x="75" y="38" width="3" height="1" fill="#2a190f"/>
<rect x="18" y="39" width="3" height="1" fill="#2a190f"/>
<rect x="21" y="39" width="3" height="1" fill="#986940"/>
<rect x="24" y="39" width="42" height="1" fill="#a07045"/>
<rect x="66" y="39" width="3" height="1" fill="#b17f53"/>
<rect x="69" y="39" width="3" height="1" fill="#e1bc93"/>
<rect x="72" y="39" width="3" height="1" fill="#b17f53"/>
<rect x="75" y="39" width="3" height="1" fill="#986940"/>
<rect x="78" y="39" width="3" height="1" fill="#2a190f"/>
<rect x="18" y="40" width="3" height="1" fill="#2a190f"/>
<rect x="21" y="40" width="3" height="1" fill="#986940"/>
<rect x="24" y="40" width="42" height="1" fill="#a07045"/>
<rect x="66" y="40" width="3" height="1" fill="#b17f53"/>
<rect x="69" y="40" width="3" height="1" fill="#e1bc93"/>
<rect x="72" y="40" width="3" height="1" fill="#b17f53"/>
<rect x="75" y="40" width="3" height="1" fill="#986940"/>
<rect x="78" y="40" width="3" height="1" fill="#2a190f"/>
<rect x="18" y="41" width="3" height="1" fill="#2a190f"/>
<rect x="21" y="41" width="3" height="1" fill="#986940"/>
<rect x="24" y="41" width="42" height="1" fill="#a07045"/>
<rect x="66" y="41" width="3" height="1" fill="#b17f53"/>
<rect x="69" y="41" width="3" height="1" fill="#e1bc93"/>
<rect x="72" y="41" width="3" height="1" fill="#b17f53"/>
<rect x="75" y="41" width="3" height="1" fill="#986940"/>
<rect x="78" y="41" width="3" height="1" fill="#2a190f"/>
<rect x="15" y="42" width="3" height="1" fill="#2a190f"/>
<rect x="18" y="42" width="3" height="1" fill="#986940"/>
<rect x="21" y="42" width="51" height="1" fill="#a07045"/>
<rect x="72" y="42" width="3" height="1" fill="#b17f53"/>
<rect x="75" y="42" width="3" height="1" fill="#b88558"/>
<rect x="78" y="42" width="3" height="1" fill="#986940"/>
<rect x="81" y="42" width="3" height="1" fill="#2a190f"/>
<rect x="15" y="43" width="3" height="1" fill="#2a190f"/>
<rect x="18" y="43" width="3" height="1" fill="#986940"/>
<rect x="21" y="43" width="51" height="1" fill="#a07045"/>
<rect x="72" y="43" width="3" height="1" fill="#b17f53"/>
<rect x="75" y="43" width="3" height="1" fill="#b88558"/>
<rect x="78" y="43" width="3" height="1" fill="#986940"/>
<rect x="81" y="43" width="3" height="1" fill="#2a190f"/>
<rect x="15" y="44" width="3" height="1" fill="#2a190f"/>
<rect x="18" y="44" width="3" height="1" fill="#986940"/>
<rect x="21" y="44" width="51" height="1" fill="#a07045"/>
<rect x="72" y="44" width="3" height="1" fill="#b17f53"/>
<rect x="75" y="44" width="3" height="1" fill="#b88558"/>
<rect x="78" y="44" width="3" height="1" fill="#986940"/>
<rect x="81" y="44" width="3" height="1" fill="#2a190f"/>
<rect x="15" y="45" width="3" height="1" fill="#2a190f"/>
<rect x="18" y="45" width="48" height="1" fill="#a07045"/>
<rect x="66" y="45" width="3" height="1" fill="#b88558"/>
<rect x="69" y="45" width="3" height="1" fill="#a07045"/>
<rect x="72" y="45" width="3" height="1" fill="#b88558"/>
<rect x="75" y="45" width="3" height="1" fill="#a07045"/>
<rect x="78" y="45" width="3" height="1" fill="#b88558"/>
<rect x="81" y="45" width="3" height="1" fill="#2a190f"/>
<rect x="15" y="46" width="3" height="1" fill="#2a190f"/>
<rect x="18" y="46" width="48" height="1" fill="#a07045"/>
<rect x="66" y="46" width="3" height="1" fill="#b88558"/>
<rect x="69" y="46" width="3" height="1" fill="#a07045"/>
<rect x="72" y="46" width="3" height="1" fill="#b88558"/>
<rect x="75" y="46" width="3" height="1" fill="#a07045"/>
<rect x="78" y="46" width="3" height="1" fill="#b88558"/>
<rect x="81" y="46" width="3" height="1" fill="#2a190f"/>
<rect x="15" y="47" width="3" height="1" fill="#2a190f"/>
<rect x="18" y="47" width="48" height="1" fill="#a07045"/>
<rect x="66" y="47" width="3" height="1" fill="#b88558"/>
<rect x="69" y="47" width="3" height="1" fill="#a07045"/>
<rect x="72" y="47" width="3" height="1" fill="#b88558"/>
<rect x="75" y="47" width="3" height="1" fill="#a07045"/>
<rect x="78" y="47" width="3" height="1" fill="#b88558"/>
<rect x="81" y="47" width="3" height="1" fill="#2a190f"/>
<rect x="15" y="48" width="3" height="1" fill="#2a190f"/>
<rect x="18" y="48" width="3" height="1" fill="#986940"/>
<rect x="21" y="48" width="57" height="1" fill="#a07045"/>
<rect x="78" y="48" width="3" height="1" fill="#986940"/>
<rect x="81" y="48" width="3" height="1" fill="#2a190f"/>
<rect x="15" y="49" width="3" height="1" fill="#2a190f"/>
<rect x="18" y="49" width="3" height="1" fill="#986940"/>
<rect x="21" y="49" width="57" height="1" fill="#a07045"/>
<rect x="78" y="49" width="3" height="1" fill="#986940"/>
<rect x="81" y="49" width="3" height="1" fill="#2a190f"/>
<rect x="15" y="50" width="3" height="1" fill="#2a190f"/>
<rect x="18" y="50" width="3" height="1" fill="#986940"/>
<rect x="21" y="50" width="57" height="1" fill="#a07045"/>
<rect x="78" y="50" width="3" height="1" fill="#986940"/>
<rect x="81" y="50" width="3" height="1" fill="#2a190f"/>
<rect x="12" y="51" width="3" height="1" fill="#2a190f"/>
<rect x="15" y="51" width="3" height="1" fill="#986940"/>
<rect x="18" y="51" width="63" height="1" fill="#a07045"/>
<rect x="81" y="51" width="3" height="1" fill="#986940"/>
<rect x="84" y="51" width="3" height="1" fill="#2a190f"/>
<rect x="12" y="52" width="3" height="1" fill="#2a190f"/>
<rect x="15" y="52" width="3" height="1" fill="#986940"/>
<rect x="18" y="52" width="63" height="1" fill="#a07045"/>
<rect x="81" y="52" width="3" height="1" fill="#986940"/>
<rect x="84" y="52" width="3" height="1" fill="#2a190f"/>
<rect x="12" y="53" width="3" height="1" fill="#2a190f"/>
<rect x="15" y="53" width="3" height="1" fill="#986940"/>
<rect x="18" y="53" width="63" height="1" fill="#a07045"/>
<rect x="81" y="53" width="3" height="1" fill="#986940"/>
<rect x="84" y="53" width="3" height="1" fill="#2a190f"/>
<rect x="12" y="54" width="3" height="1" fill="#2a190f"/>
<rect x="15" y="54" width="3" height="1" fill="#a07045"/>
<rect x="18" y="54" width="3" height="1" fill="#986940"/>
<rect x="21" y="54" width="15" height="1" fill="#a07045"/>
<rect x="36" y="54" width="3" height="1" fill="#0b1020"/>
<rect x="39" y="54" width="3" height="1" fill="#9d9fa6"/>
<rect x="42" y="54" width="18" height="1" fill="#a07045"/>
<rect x="60" y="54" width="3" height="1" fill="#0b1020"/>
<rect x="63" y="54" width="3" height="1" fill="#9d9fa6"/>
<rect x="66" y="54" width="12" height="1" fill="#a07045"/>
<rect x="78" y="54" width="3" height="1" fill="#986940"/>
<rect x="81" y="54" width="3" height="1" fill="#a07045"/>
<rect x="84" y="54" width="3" height="1" fill="#2a190f"/>
<rect x="12" y="55" width="3" height="1" fill="#2a190f"/>
<rect x="15" y="55" width="3" height="1" fill="#a07045"/>
<rect x="18" y="55" width="3" height="1" fill="#986940"/>
<rect x="21" y="55" width="15" height="1" fill="#a07045"/>
<rect x="36" y="55" width="3" height="1" fill="#0b1020"/>
<rect x="39" y="55" width="3" height="1" fill="#9d9fa6"/>
<rect x="42" y="55" width="18" height="1" fill="#a07045"/>
<rect x="60" y="55" width="3" height="1" fill="#0b1020"/>
<rect x="63" y="55" width="3" height="1" fill="#9d9fa6"/>
<rect x="66" y="55" width="12" height="1" fill="#a07045"/>
<rect x="78" y="55" width="3" height="1" fill="#986940"/>
<rect x="81" y="55" width="3" height="1" fill="#a07045"/>
<rect x="84" y="55" width="3" height="1" fill="#2a190f"/>
<rect x="12" y="56" width="3" height="1" fill="#2a190f"/>
<rect x="15" y="56" width="3" height="1" fill="#a07045"/>
<rect x="18" y="56" width="3" height="1" fill="#986940"/>
<rect x="21" y="56" width="15" height="1" fill="#a07045"/>
<rect x="36" y="56" width="3" height="1" fill="#0b1020"/>
<rect x="39" y="56" width="3" height="1" fill="#9d9fa6"/>
<rect x="42" y="56" width="18" height="1" fill="#a07045"/>
<rect x="60" y="56" width="3" height="1" fill="#0b1020"/>
<rect x="63" y="56" width="3" height="1" fill="#9d9fa6"/>
<rect x="66" y="56" width="12" height="1" fill="#a07045"/>
<rect x="78" y="56" width="3" height="1" fill="#986940"/>
<rect x="81" y="56" width="3" height="1" fill="#a07045"/>
<rect x="84" y="56" width="3" height="1" fill="#2a190f"/>
<rect x="12" y="57" width="3" height="1" fill="#2a190f"/>
<rect x="15" y="57" width="18" height="1" fill="#a07045"/>
<rect x="33" y="57" width="12" height="1" fill="#0b1020"/>
<rect x="45" y="57" width="12" height="1" fill="#a07045"/>
<rect x="57" y="57" width="12" height="1" fill="#0b1020"/>
<rect x="69" y="57" width="12" height="1" fill="#a07045"/>
<rect x="81" y="57" width="3" height="1" fill="#986940"/>
<rect x="84" y="57" width="3" height="1" fill="#2a190f"/>
<rect x="12" y="58" width="3" height="1" fill="#2a190f"/>
<rect x="15" y="58" width="18" height="1" fill="#a07045"/>
<rect x="33" y="58" width="12" height="1" fill="#0b1020"/>
<rect x="45" y="58" width="12" height="1" fill="#a07045"/>
<rect x="57" y="58" width="12" height="1" fill="#0b1020"/>
<rect x="69" y="58" width="12" height="1" fill="#a07045"/>
<rect x="81" y="58" width="3" height="1" fill="#986940"/>
<rect x="84" y="58" width="3" height="1" fill="#2a190f"/>
<rect x="12" y="59" width="3" height="1" fill="#2a190f"/>
<rect x="15" y="59" width="18" height="1" fill="#a07045"/>
<rect x="33" y="59" width="12" height="1" fill="#0b1020"/>
<rect x="45" y="59" width="12" height="1" fill="#a07045"/>
<rect x="57" y="59" width="12" height="1" fill="#0b1020"/>
<rect x="69" y="59" width="12" height="1" fill="#a07045"/>
<rect x="81" y="59" width="3" height="1" fill="#986940"/>
<rect x="84" y="59" width="3" height="1" fill="#2a190f"/>
<rect x="15" y="60" width="3" height="1" fill="#2a190f"/>
<rect x="18" y="60" width="3" height="1" fill="#986940"/>
<rect x="21" y="60" width="15" height="1" fill="#a07045"/>
<rect x="36" y="60" width="6" height="1" fill="#0b1020"/>
<rect x="42" y="60" width="18" height="1" fill="#a07045"/>
<rect x="60" y="60" width="6" height="1" fill="#0b1020"/>
<rect x="66" y="60" width="12" height="1" fill="#a07045"/>
<rect x="78" y="60" width="3" height="1" fill="#986940"/>
<rect x="81" y="60" width="3" height="1" fill="#2a190f"/>
<rect x="15" y="61" width="3" height="1" fill="#2a190f"/>
<rect x="18" y="61" width="3" height="1" fill="#986940"/>
<rect x="21" y="61" width="15" height="1" fill="#a07045"/>
<rect x="36" y="61" width="6" height="1" fill="#0b1020"/>
<rect x="42" y="61" width="18" height="1" fill="#a07045"/>
<rect x="60" y="61" width="6" height="1" fill="#0b1020"/>
<rect x="66" y="61" width="12" height="1" fill="#a07045"/>
<rect x="78" y="61" width="3" height="1" fill="#986940"/>
<rect x="81" y="61" width="3" height="1" fill="#2a190f"/>
<rect x="15" y="62" width="3" height="1" fill="#2a190f"/>
<rect x="18" y="62" width="3" height="1" fill="#986940"/>
<rect x="21" y="62" width="15" height="1" fill="#a07045"/>
<rect x="36" y="62" width="6" height="1" fill="#0b1020"/>
<rect x="42" y="62" width="18" height="1" fill="#a07045"/>
<rect x="60" y="62" width="6" height="1" fill="#0b1020"/>
<rect x="66" y="62" width="12" height="1" fill="#a07045"/>
<rect x="78" y="62" width="3" height="1" fill="#986940"/>
<rect x="81" y="62" width="3" height="1" fill="#2a190f"/>
<rect x="15" y="63" width="3" height="1" fill="#2a190f"/>
<rect x="18" y="63" width="63" height="1" fill="#a07045"/>
<rect x="81" y="63" width="3" height="1" fill="#2a190f"/>
<rect x="15" y="64" width="3" height="1" fill="#2a190f"/>
<rect x="18" y="64" width="63" height="1" fill="#a07045"/>
<rect x="81" y="64" width="3" height="1" fill="#2a190f"/>
<rect x="15" y="65" width="3" height="1" fill="#2a190f"/>
<rect x="18" y="65" width="63" height="1" fill="#a07045"/>
<rect x="81" y="65" width="3" height="1" fill="#2a190f"/>
<rect x="15" y="66" width="3" height="1" fill="#2a190f"/>
<rect x="18" y="66" width="3" height="1" fill="#986940"/>
<rect x="21" y="66" width="3" height="1" fill="#a07045"/>
<rect x="24" y="66" width="9" height="1" fill="#d97162"/>
<rect x="33" y="66" width="33" height="1" fill="#a07045"/>
<rect x="66" y="66" width="9" height="1" fill="#d97162"/>
<rect x="75" y="66" width="3" height="1" fill="#a07045"/>
<rect x="78" y="66" width="3" height="1" fill="#986940"/>
<rect x="81" y="66" width="3" height="1" fill="#2a190f"/>
<rect x="15" y="67" width="3" height="1" fill="#2a190f"/>
<rect x="18" y="67" width="3" height="1" fill="#986940"/>
<rect x="21" y="67" width="3" height="1" fill="#a07045"/>
<rect x="24" y="67" width="9" height="1" fill="#d97162"/>
<rect x="33" y="67" width="33" height="1" fill="#a07045"/>
<rect x="66" y="67" width="9" height="1" fill="#d97162"/>
<rect x="75" y="67" width="3" height="1" fill="#a07045"/>
<rect x="78" y="67" width="3" height="1" fill="#986940"/>
<rect x="81" y="67" width="3" height="1" fill="#2a190f"/>
<rect x="15" y="68" width="3" height="1" fill="#2a190f"/>
<rect x="18" y="68" width="3" height="1" fill="#986940"/>
<rect x="21" y="68" width="3" height="1" fill="#a07045"/>
<rect x="24" y="68" width="9" height="1" fill="#d97162"/>
<rect x="33" y="68" width="33" height="1" fill="#a07045"/>
<rect x="66" y="68" width="9" height="1" fill="#d97162"/>
<rect x="75" y="68" width="3" height="1" fill="#a07045"/>
<rect x="78" y="68" width="3" height="1" fill="#986940"/>
<rect x="81" y="68" width="3" height="1" fill="#2a190f"/>
<rect x="18" y="69" width="3" height="1" fill="#2a190f"/>
<rect x="21" y="69" width="3" height="1" fill="#986940"/>
<rect x="24" y="69" width="9" height="1" fill="#d97162"/>
<rect x="33" y="69" width="21" height="1" fill="#a07045"/>
<rect x="54" y="69" width="3" height="1" fill="#94673f"/>
<rect x="57" y="69" width="9" height="1" fill="#a07045"/>
<rect x="66" y="69" width="9" height="1" fill="#d97162"/>
<rect x="75" y="69" width="3" height="1" fill="#a07045"/>
<rect x="78" y="69" width="3" height="1" fill="#2a190f"/>
<rect x="18" y="70" width="3" height="1" fill="#2a190f"/>
<rect x="21" y="70" width="3" height="1" fill="#986940"/>
<rect x="24" y="70" width="9" height="1" fill="#d97162"/>
<rect x="33" y="70" width="21" height="1" fill="#a07045"/>
<rect x="54" y="70" width="3" height="1" fill="#94673f"/>
<rect x="57" y="70" width="9" height="1" fill="#a07045"/>
<rect x="66" y="70" width="9" height="1" fill="#d97162"/>
<rect x="75" y="70" width="3" height="1" fill="#a07045"/>
<rect x="78" y="70" width="3" height="1" fill="#2a190f"/>
<rect x="18" y="71" width="3" height="1" fill="#2a190f"/>
<rect x="21" y="71" width="3" height="1" fill="#986940"/>
<rect x="24" y="71" width="9" height="1" fill="#d97162"/>
<rect x="33" y="71" width="21" height="1" fill="#a07045"/>
<rect x="54" y="71" width="3" height="1" fill="#94673f"/>
<rect x="57" y="71" width="9" height="1" fill="#a07045"/>
<rect x="66" y="71" width="9" height="1" fill="#d97162"/>
<rect x="75" y="71" width="3" height="1" fill="#a07045"/>
<rect x="78" y="71" width="3" height="1" fill="#2a190f"/>
<rect x="21" y="72" width="3" height="1" fill="#2a190f"/>
<rect x="24" y="72" width="3" height="1" fill="#986940"/>
<rect x="27" y="72" width="9" height="1" fill="#a07045"/>
<rect x="36" y="72" width="3" height="1" fill="#8a5a3b"/>
<rect x="39" y="72" width="12" height="1" fill="#a07045"/>
<rect x="51" y="72" width="3" height="1" fill="#835936"/>
<rect x="54" y="72" width="3" height="1" fill="#775030"/>
<rect x="57" y="72" width="3" height="1" fill="#f0d3ad"/>
<rect x="60" y="72" width="12" height="1" fill="#a07045"/>
<rect x="72" y="72" width="3" height="1" fill="#8a5a3b"/>
<rect x="75" y="72" width="3" height="1" fill="#2a190f"/>
<rect x="21" y="73" width="3" height="1" fill="#2a190f"/>
<rect x="24" y="73" width="3" height="1" fill="#986940"/>
<rect x="27" y="73" width="9" height="1" fill="#a07045"/>
<rect x="36" y="73" width="3" height="1" fill="#8a5a3b"/>
<rect x="39" y="73" width="12" height="1" fill="#a07045"/>
<rect x="51" y="73" width="3" height="1" fill="#835936"/>
<rect x="54" y="73" width="3" height="1" fill="#775030"/>
<rect x="57" y="73" width="3" height="1" fill="#f0d3ad"/>
<rect x="60" y="73" width="12" height="1" fill="#a07045"/>
<rect x="72" y="73" width="3" height="1" fill="#8a5a3b"/>
<rect x="75" y="73" width="3" height="1" fill="#2a190f"/>
<rect x="21" y="74" width="3" height="1" fill="#2a190f"/>
<rect x="24" y="74" width="3" height="1" fill="#986940"/>
<rect x="27" y="74" width="9" height="1" fill="#a07045"/>
<rect x="36" y="74" width="3" height="1" fill="#8a5a3b"/>
<rect x="39" y="74" width="12" height="1" fill="#a07045"/>
<rect x="51" y="74" width="3" height="1" fill="#835936"/>
<rect x="54" y="74" width="3" height="1" fill="#775030"/>
<rect x="57" y="74" width="3" height="1" fill="#f0d3ad"/>
<rect x="60" y="74" width="12" height="1" fill="#a07045"/>
<rect x="72" y="74" width="3" height="1" fill="#8a5a3b"/>
<rect x="75" y="74" width="3" height="1" fill="#2a190f"/>
<rect x="24" y="75" width="6" height="1" fill="#2a190f"/>
<rect x="30" y="75" width="18" height="1" fill="#a07045"/>
<rect x="48" y="75" width="3" height="1" fill="#94673f"/>
<rect x="51" y="75" width="3" height="1" fill="#775030"/>
<rect x="54" y="75" width="3" height="1" fill="#593922"/>
<rect x="57" y="75" width="3" height="1" fill="#775030"/>
<rect x="60" y="75" width="3" height="1" fill="#8a5a3b"/>
<rect x="63" y="75" width="3" height="1" fill="#986940"/>
<rect x="66" y="75" width="3" height="1" fill="#a07045"/>
<rect x="69" y="75" width="6" height="1" fill="#2a190f"/>
<rect x="24" y="76" width="6" height="1" fill="#2a190f"/>
<rect x="30" y="76" width="18" height="1" fill="#a07045"/>
<rect x="48" y="76" width="3" height="1" fill="#94673f"/>
<rect x="51" y="76" width="3" height="1" fill="#775030"/>
<rect x="54" y="76" width="3" height="1" fill="#593922"/>
<rect x="57" y="76" width="3" height="1" fill="#775030"/>
<rect x="60" y="76" width="3" height="1" fill="#8a5a3b"/>
<rect x="63" y="76" width="3" height="1" fill="#986940"/>
<rect x="66" y="76" width="3" height="1" fill="#a07045"/>
<rect x="69" y="76" width="6" height="1" fill="#2a190f"/>
<rect x="24" y="77" width="6" height="1" fill="#2a190f"/>
<rect x="30" y="77" width="18" height="1" fill="#a07045"/>
<rect x="48" y="77" width="3" height="1" fill="#94673f"/>
<rect x="51" y="77" width="3" height="1" fill="#775030"/>
<rect x="54" y="77" width="3" height="1" fill="#593922"/>
<rect x="57" y="77" width="3" height="1" fill="#775030"/>
<rect x="60" y="77" width="3" height="1" fill="#8a5a3b"/>
<rect x="63" y="77" width="3" height="1" fill="#986940"/>
<rect x="66" y="77" width="3" height="1" fill="#a07045"/>
<rect x="69" y="77" width="6" height="1" fill="#2a190f"/>
<rect x="30" y="78" width="6" height="1" fill="#2a190f"/>
<rect x="36" y="78" width="3" height="1" fill="#986940"/>
<rect x="39" y="78" width="3" height="1" fill="#a07045"/>
<rect x="42" y="78" width="3" height="1" fill="#986940"/>
<rect x="45" y="78" width="3" height="1" fill="#a07045"/>
<rect x="48" y="78" width="3" height="1" fill="#986940"/>
<rect x="51" y="78" width="3" height="1" fill="#835936"/>
<rect x="54" y="78" width="3" height="1" fill="#775030"/>
<rect x="57" y="78" width="3" height="1" fill="#835936"/>
<rect x="60" y="78" width="3" height="1" fill="#986940"/>
<rect x="63" y="78" width="6" height="1" fill="#2a190f"/>
<rect x="30" y="79" width="6" height="1" fill="#2a190f"/>
<rect x="36" y="79" width="3" height="1" fill="#986940"/>
<rect x="39" y="79" width="3" height="1" fill="#a07045"/>
<rect x="42" y="79" width="3" height="1" fill="#986940"/>
<rect x="45" y="79" width="3" height="1" fill="#a07045"/>
<rect x="48" y="79" width="3" height="1" fill="#986940"/>
<rect x="51" y="79" width="3" height="1" fill="#835936"/>
<rect x="54" y="79" width="3" height="1" fill="#775030"/>
<rect x="57" y="79" width="3" height="1" fill="#835936"/>
<rect x="60" y="79" width="3" height="1" fill="#986940"/>
<rect x="63" y="79" width="6" height="1" fill="#2a190f"/>
<rect x="30" y="80" width="6" height="1" fill="#2a190f"/>
<rect x="36" y="80" width="3" height="1" fill="#986940"/>
<rect x="39" y="80" width="3" height="1" fill="#a07045"/>
<rect x="42" y="80" width="3" height="1" fill="#986940"/>
<rect x="45" y="80" width="3" height="1" fill="#a07045"/>
<rect x="48" y="80" width="3" height="1" fill="#986940"/>
<rect x="51" y="80" width="3" height="1" fill="#835936"/>
<rect x="54" y="80" width="3" height="1" fill="#775030"/>
<rect x="57" y="80" width="3" height="1" fill="#835936"/>
<rect x="60" y="80" width="3" height="1" fill="#986940"/>
<rect x="63" y="80" width="6" height="1" fill="#2a190f"/>
<rect x="36" y="81" width="27" height="1" fill="#2a190f"/>
<rect x="36" y="82" width="27" height="1" fill="#2a190f"/>
<rect x="36" y="83" width="27" height="1" fill="#2a190f"/>
</svg>