<svg viewBox="0 0 96 96" width="96" height="96" style="image-rendering:pixelated" xmlns="http://www.w3.org/2000/svg">
<rect x="42" y="33" width="15" height="1" fill="#2a170f"/>
<rect x="42" y="34" width="15" height="1" fill="#2a170f"/>
<rect x="42" y="35" width="15" height="1" fill="#2a170f"/>
<rect x="36" y="36" width="6" height="1" fill="#2a170f"/>
<rect x="42" y="36" width="3" height="1" fill="#643b27"/>
<rect x="45" y="36" width="3" height="1" fill="#6b3f2a"/>
<rect x="48" y="36" width="3" height="1" fill="#643b27"/>
<rect x="51" y="36" width="3" height="1" fill="#6b3f2a"/>
<rect x="54" y="36" width="3" height="1" fill="#643b27"/>
<rect x="57" y="36" width="6" height="1" fill="#2a170f"/>
<rect x="36" y="37" width="6" height="1" fill="#2a170f"/>
<rect x="42" y="37" width="3" height="1" fill="#643b27"/>
<rect x="45" y="37" width="3" height="1" fill="#6b3f2a"/>
<rect x="48" y="37" width="3" height="1" fill="#643b27"/>
<rect x="51" y="37" width="3" height="1" fill="#6b3f2a"/>
<rect x="54" y="37" width="3" height="1" fill="#643b27"/>
<rect x="57" y="37" width="6" height="1" fill="#2a170f"/>
<rect x="36" y="38" width="6" height="1" fill="#2a170f"/>
<rect x="42" y="38" width="3" height="1" fill="#643b27"/>
<rect x="45" y="38" width="3" height="1" fill="#6b3f2a"/>
<rect x="48" y="38" width="3" height="1" fill="#643b27"/>
<rect x="51" y="38" width="3" height="1" fill="#6b3f2a"/>
<rect x="54" y="38" width="3" height="1" fill="#643b27"/>
<rect x="57" y="38" width="6" height="1" fill="#2a170f"/>
<rect x="33" y="39" width="3" height="1" fill="#2a170f"/>
<rect x="36" y="39" width="24" height="1" fill="#6b3f2a"/>
<rect x="60" y="39" width="3" height="1" fill="#caa07a"/>
<rect x="63" y="39" width="3" height="1" fill="#2a170f"/>
<rect x="33" y="40" width="3" height="1" fill="#2a170f"/>
<rect x="36" y="40" width="24" height="1" fill="#6b3f2a"/>
<rect x="60" y="40" width="3" height="1" fill="#caa07a"/>
<rect x="63" y="40" width="3" height="1" fill="#2a170f"/>
<rect x="33" y="41" width="3" height="1" fill="#2a170f"/>
<rect x="36" y="41" width="24" height="1" fill="#6b3f2a"/>
<rect x="60" y="41" width="3" height="1" fill="#caa07a"/>
<rect x="63" y="41" width="3" height="1" fill="#2a170f"/>
<rect x="30" y="42" width="3" height="1" fill="#2a170f"/>
<rect x="33" y="42" width="33" height="1" fill="#6b3f2a"/>
<rect x="66" y="42" width="3" height="1" fill="#2a170f"/>
<rect x="30" y="43" width="3" height="1" fill="#2a170f"/>
<rect x="33" y="43" width="33" height="1" fill="#6b3f2a"/>
<rect x="66" y="43" width="3" height="1" fill="#2a170f"/>
<rect x="30" y="44" width="3" height="1" fill="#2a170f"/>
<rect x="33" y="44" width="33" height="1" fill="#6b3f2a"/>
<rect x="66" y="44" width="3" height="1" fill="#2a170f"/>
<rect x="27" y="45" width="3" height="1" fill="#2a170f"/>
<rect x="30" y="45" width="9" height="1" fill="#6b3f2a"/>
<rect x="39" y="45" width="3" height="1" fill="#0b1020"/>
<rect x="42" y="45" width="3" height="1" fill="#9d9fa6"/>
<rect x="45" y="45" width="18" height="1" fill="#6b3f2a"/>
<rect x="63" y="45" width="3" height="1" fill="#0b1020"/>
<rect x="66" y="45" width="3" height="1" fill="#9d9fa6"/>
<rect x="69" y="45" width="3" height="1" fill="#2a170f"/>
<rect x="27" y="46" width="3" height="1" fill="#2a170f"/>
<rect x="30" y="46" width="9" height="1" fill="#6b3f2a"/>
<rect x="39" y="46" width="3" height="1" fill="#0b1020"/>
<rect x="42" y="46" width="3" height="1" fill="#9d9fa6"/>
<rect x="45" y="46" width="18" height="1" fill="#6b3f2a"/>
<rect x="63" y="46" width="3" height="1" fill="#0b1020"/>
<rect x="66" y="46" width="3" height="1" fill="#9d9fa6"/>
<rect x="69" y="46" width="3" height="1" fill="#2a170f"/>
<rect x="27" y="47" width="3" height="1" fill="#2a170f"/>
<rect x="30" y="47" width="9" height="1" fill="#6b3f2a"/>
<rect x="39" y="47" width="3" height="1" fill="#0b1020"/>
<rect x="42" y="47" width="3" height="1" fill="#9d9fa6"/>
<rect x="45" y="47" width="18" height="1" fill="#6b3f2a"/>
<rect x="63" y="47" width="3" height="1" fill="#0b1020"/>
<rect x="66" y="47" width="3" height="1" fill="#9d9fa6"/>
<rect x="69" y="47" width="3" height="1" fill="#2a170f"/>
<rect x="27" y="48" width="3" height="1" fill="#2a170f"/>
<rect x="30" y="48" width="3" height="1" fill="#643b27"/>
<rect x="33" y="48" width="3" height="1" fill="#6b3f2a"/>
<rect x="36" y="48" width="12" height="1" fill="#0b1020"/>
<rect x="48" y="48" width="6" height="1" fill="#6b3f2a"/>
<rect x="54" y="48" width="3" height="1" fill="#7c4b33"/>
<rect x="57" y="48" width="3" height="1" fill="#6b3f2a"/>
<rect x="60" y="48" width="12" height="1" fill="#0b1020"/>
<rect x="27" y="49" width="3" height="1" fill="#2a170f"/>
<rect x="30" y="49" width="3" height="1" fill="#643b27"/>
<rect x="33" y="49" width="3" height="1" fill="#6b3f2a"/>
<rect x="36" y="49" width="12" height="1" fill="#0b1020"/>
<rect x="48" y="49" width="6" height="1" fill="#6b3f2a"/>
<rect x="54" y="49" width="3" height="1" fill="#7c4b33"/>
<rect x="57" y="49" width="3" height="1" fill="#6b3f2a"/>
<rect x="60" y="49" width="12" height="1" fill="#0b1020"/>
<rect x="27" y="50" width="3" height="1" fill="#2a170f"/>
<rect x="30" y="50" width="3" height="1" fill="#643b27"/>
<rect x="33" y="50" width="3" height="1" fill="#6b3f2a"/>
<rect x="36" y="50" width="12" height="1" fill="#0b1020"/>
<rect x="48" y="50" width="6" height="1" fill="#6b3f2a"/>
<rect x="54" y="50" width="3" height="1" fill="#7c4b33"/>
<rect x="57" y="50" width="3" height="1" fill="#6b3f2a"/>
<rect x="60" y="50" width="12" height="1" fill="#0b1020"/>
<rect x="27" y="51" width="3" height="1" fill="#2a170f"/>
<rect x="30" y="51" width="9" height="1" fill="#6b3f2a"/>
<rect x="39" y="51" width="6" height="1" fill="#0b1020"/>
<rect x="45" y="51" width="18" height="1" fill="#6b3f2a"/>
<rect x="63" y="51" width="6" height="1" fill="#0b1020"/>
<rect x="69" y="51" width="3" height="1" fill="#2a170f"/>
<rect x="27" y="52" width="3" height="1" fill="#2a170f"/>
<rect x="30" y="52" width="9" height="1" fill="#6b3f2a"/>
<rect x="39" y="52" width="6" height="1" fill="#0b1020"/>
<rect x="45" y="52" width="18" height="1" fill="#6b3f2a"/>
<rect x="63" y="52" width="6" height="1" fill="#0b1020"/>
<rect x="69" y="52" width="3" height="1" fill="#2a170f"/>
<rect x="27" y="53" width="3" height="1" fill="#2a170f"/>
<rect x="30" y="53" width="9" height="1" fill="#6b3f2a"/>
<rect x="39" y="53" width="6" height="1" fill="#0b1020"/>
<rect x="45" y="53" width="18" height="1" fill="#6b3f2a"/>
<rect x="63" y="53" width="6" height="1" fill="#0b1020"/>
<rect x="69" y="53" width="3" height="1" fill="#2a170f"/>
<rect x="27" y="54" width="3" height="1" fill="#2a170f"/>
<rect x="30" y="54" width="3" height="1" fill="#643b27"/>
<rect x="33" y="54" width="12" height="1" fill="#6b3f2a"/>
<rect x="45" y="54" width="3" height="1" fill="#623a26"/>
<rect x="48" y="54" width="18" height="1" fill="#6b3f2a"/>
<rect x="66" y="54" width="3" height="1" fill="#643b27"/>
<rect x="69" y="54" width="3" height="1" fill="#2a170f"/>
<rect x="27" y="55" width="3" height="1" fill="#2a170f"/>
<rect x="30" y="55" width="3" height="1" fill="#643b27"/>
<rect x="33" y="55" width="12" height="1" fill="#6b3f2a"/>
<rect x="45" y="55" width="3" height="1" fill="#623a26"/>
<rect x="48" y="55" width="18" height="1" fill="#6b3f2a"/>
<rect x="66" y="55" width="3" height="1" fill="#643b27"/>
<rect x="69" y="55" width="3" height="1" fill="#2a170f"/>
<rect x="27" y="56" width="3" height="1" fill="#2a170f"/>
<rect x="30" y="56" width="3" height="1" fill="#643b27"/>
<rect x="33" y="56" width="12" height="1" fill="#6b3f2a"/>
<rect x="45" y="56" width="3" height="1" fill="#623a26"/>
<rect x="48" y="56" width="18" height="1" fill="#6b3f2a"/>
<rect x="66" y="56" width="3" height="1" fill="#643b27"/>
<rect x="69" y="56" width="3" height="1" fill="#2a170f"/>
<rect x="27" y="57" width="3" height="1" fill="#b0524f"/>
<rect x="30" y="57" width="6" height="1" fill="#c76058"/>
<rect x="36" y="57" width="6" height="1" fill="#6b3f2a"/>
<rect x="42" y="57" width="3" height="1" fill="#7c4b33"/>
<rect x="45" y="57" width="3" height="1" fill="#4d2c1d"/>
<rect x="48" y="57" width="3" height="1" fill="#caa07a"/>
<rect x="51" y="57" width="15" height="1" fill="#6b3f2a"/>
<rect x="66" y="57" width="3" height="1" fill="#c76058"/>
<rect x="69" y="57" width="3" height="1" fill="#b0524f"/>
<rect x="72" y="57" width="3" height="1" fill="#f77272" fill-opacity="0.651"/>
<rect x="27" y="58" width="3" height="1" fill="#b0524f"/>
<rect x="30" y="58" width="6" height="1" fill="#c76058"/>
<rect x="36" y="58" width="6" height="1" fill="#6b3f2a"/>
<rect x="42" y="58" width="3" height="1" fill="#7c4b33"/>
<rect x="45" y="58" width="3" height="1" fill="#4d2c1d"/>
<rect x="48" y="58" width="3" height="1" fill="#caa07a"/>
<rect x="51" y="58" width="15" height="1" fill="#6b3f2a"/>
<rect x="66" y="58" width="3" height="1" fill="#c76058"/>
<rect x="69" y="58" width="3" height="1" fill="#b0524f"/>
<rect x="72" y="58" width="3" height="1" fill="#f77272" fill-opacity="0.651"/>
<rect x="27" y="59" width="3" height="1" fill="#b0524f"/>
<rect x="30" y="59" width="6" height="1" fill="#c76058"/>
<rect x="36" y="59" width="6" height="1" fill="#6b3f2a"/>
<rect x="42" y="59" width="3" height="1" fill="#7c4b33"/>
<rect x="45" y="59" width="3" height="1" fill="#4d2c1d"/>
<rect x="48" y="59" width="3" height="1" fill="#caa07a"/>
<rect x="51" y="59" width="15" height="1" fill="#6b3f2a"/>
<rect x="66" y="59" width="3" height="1" fill="#c76058"/>
<rect x="69" y="59" width="3" height="1" fill="#b0524f"/>
<rect x="72" y="59" width="3" height="1" fill="#f77272" fill-opacity="0.651"/>
<rect x="27" y="60" width="3" height="1" fill="#f77272" fill-opacity="0.651"/>
<rect x="30" y="60" width="3" height="1" fill="#b0524f"/>
<rect x="33" y="60" width="3" height="1" fill="#c76058"/>
<rect x="36" y="60" width="3" height="1" fill="#6b3f2a"/>
<rect x="39" y="60" width="3" height="1" fill="#623a26"/>
<rect x="42" y="60" width="3" height="1" fill="#4d2c1d"/>
<rect x="45" y="60" width="3" height="1" fill="#381f14"/>
<rect x="48" y="60" width="3" height="1" fill="#4d2c1d"/>
<rect x="51" y="60" width="3" height="1" fill="#623a26"/>
<rect x="54" y="60" width="12" height="1" fill="#6b3f2a"/>
<rect x="66" y="60" width="3" height="1" fill="#b0524f"/>
<rect x="69" y="60" width="6" height="1" fill="#f77272" fill-opacity="0.651"/>
<rect x="27" y="61" width="3" height="1" fill="#f77272" fill-opacity="0.651"/>
<rect x="30" y="61" width="3" height="1" fill="#b0524f"/>
<rect x="33" y="61" width="3" height="1" fill="#c76058"/>
<rect x="36" y="61" width="3" height="1" fill="#6b3f2a"/>
<rect x="39" y="61" width="3" height="1" fill="#623a26"/>
<rect x="42" y="61" width="3" height="1" fill="#4d2c1d"/>
<rect x="45" y="61" width="3" height="1" fill="#381f14"/>
<rect x="48" y="61" width="3" height="1" fill="#4d2c1d"/>
<rect x="51" y="61" width="3" height="1" fill="#623a26"/>
<rect x="54" y="61" width="12" height="1" fill="#6b3f2a"/>
<rect x="66" y="61" width="3" height="1" fill="#b0524f"/>
<rect x="69" y="61" width="6" height="1" fill="#f77272" fill-opacity="0.651"/>
<rect x="27" y="62" width="3" height="1" fill="#f77272" fill-opacity="0.651"/>
<rect x="30" y="62" width="3" height="1" fill="#b0524f"/>
<rect x="33" y="62" width="3" height="1" fill="#c76058"/>
<rect x="36" y="62" width="3" height="1" fill="#6b3f2a"/>
<rect x="39" y="62" width="3" height="1" fill="#623a26"/>
<rect x="42" y="62" width="3" height="1" fill="#4d2c1d"/>
<rect x="45" y="62" width="3" height="1" fill="#381f14"/>
<rect x="48" y="62" width="3" height="1" fill="#4d2c1d"/>
<rect x="51" y="62" width="3" height="1" fill="#623a26"/>
<rect x="54" y="62" width="12" height="1" fill="#6b3f2a"/>
<rect x="66" y="62" width="3" height="1" fill="#b0524f"/>
<rect x="69" y="62" width="6" height="1" fill="#f77272" fill-opacity="0.651"/>
<rect x="33" y="63" width="3" height="1" fill="#2a170f"/>
<rect x="36" y="63" width="6" height="1" fill="#6b3f2a"/>
<rect x="42" y="63" width="3" height="1" fill="#563221"/>
<rect x="45" y="63" width="3" height="1" fill="#4d2c1d"/>
<rect x="48" y="63" width="3" height="1" fill="#563221"/>
<rect x="51" y="63" width="3" height="1" fill="#7c4b33"/>
<rect x="54" y="63" width="9" height="1" fill="#6b3f2a"/>
<rect x="63" y="63" width="3" height="1" fill="#2a170f"/>
<rect x="33" y="64" width="3" height="1" fill="#2a170f"/>
<rect x="36" y="64" width="6" height="1" fill="#6b3f2a"/>
<rect x="42" y="64" width="3" height="1" fill="#563221"/>
<rect x="45" y="64" width="3" height="1" fill="#4d2c1d"/>
<rect x="48" y="64" width="3" height="1" fill="#563221"/>
<rect x="51" y="64" width="3" height="1" fill="#7c4b33"/>
<rect x="54" y="64" width="9" height="1" fill="#6b3f2a"/>
<rect x="63" y="64" width="3" height="1" fill="#2a170f"/>
<rect x="33" y="65" width="3" height="1" fill="#2a170f"/>
<rect x="36" y="65" width="6" height="1" fill="#6b3f2a"/>
<rect x="42" y="65" width="3" height="1" fill="#563221"/>
<rect x="45" y="65" width="3" height="1" fill="#4d2c1d"/>
<rect x="48" y="65" width="3" height="1" fill="#563221"/>
<rect x="51" y="65" width="3" height="1" fill="#7c4b33"/>
<rect x="54" y="65" width="9" height="1" fill="#6b3f2a"/>
<rect x="63" y="65" width="3" height="1" fill="#2a170f"/>
<rect x="36" y="66" width="6" height="1" fill="#2a170f"/>
<rect x="42" y="66" width="3" height="1" fill="#643b27"/>
<rect x="45" y="66" width="3" height="1" fill="#623a26"/>
<rect x="48" y="66" width="6" height="1" fill="#6b3f2a"/>
<rect x="54" y="66" width="3" height="1" fill="#643b27"/>
<rect x="57" y="66" width="6" height="1" fill="#2a170f"/>
<rect x="36" y="67" width="6" height="1" fill="#2a170f"/>
<rect x="42" y="67" width="3" height="1" fill="#643b27"/>
<rect x="45" y="67" width="3" height="1" fill="#623a26"/>
<rect x="48" y="67" width="6" height="1" fill="#6b3f2a"/>
<rect x="54" y="67" width="3" height="1" fill="#643b27"/>
<rect x="57" y="67" width="6" height="1" fill="#2a170f"/>
<rect x="36" y="68" width="6" height="1" fill="#2a170f"/>
<rect x="42" y="68" width="3" height="1" fill="#643b27"/>
<rect x="45" y="68" width="3" height="1" fill="#623a26"/>
<rect x="48" y="68" width="6" height="1" fill="#6b3f2a"/>
<rect x="54" y="68" width="3" height="1" fill="#643b27"/>
<rect x="57" y="68" width="6" height="1" fill="#2a170f"/>
<rect x="42" y="69" width="15" height="1" fill="#2a170f"/>
<rect x="42" y="70" width="15" height="1" fill="#2a170f"/>
<rect x="42" y="71" width="15" height="1" fill="#2a170f"/>
</svg>