<svg viewBox="0 0 96 96" width="96" height="96" style="image-rendering:pixelated" xmlns="http://www.w3.org/2000/svg">
<rect x="42" y="15" width="3" height="1" fill="#bbf7d0"/>
<rect x="54" y="15" width="3" height="1" fill="#bbf7d0"/>
<rect x="42" y="16" width="3" height="1" fill="#bbf7d0"/>
<rect x="54" y="16" width="3" height="1" fill="#bbf7d0"/>
<rect x="42" y="17" width="3" height="1" fill="#bbf7d0"/>
<rect x="54" y="17" width="3" height="1" fill="#bbf7d0"/>
<rect x="42" y="18" width="3" height="1" fill="#4ade80"/>
<rect x="54" y="18" width="3" height="1" fill="#4ade80"/>
<rect x="42" y="19" width="3" height="1" fill="#4ade80"/>
<rect x="54" y="19" width="3" height="1" fill="#4ade80"/>
<rect x="42" y="20" width="3" height="1" fill="#4ade80"/>
<rect x="54" y="20" width="3" height="1" fill="#4ade80"/>
<rect x="45" y="21" width="3" height="1" fill="#4ade80"/>
<rect x="48" y="21" width="3" height="1" fill="#22c55e"/>
<rect x="51" y="21" width="3" height="1" fill="#4ade80"/>
<rect x="45" y="22" width="3" height="1" fill="#4ade80"/>
<rect x="48" y="22" width="3" height="1" fill="#22c55e"/>
<rect x="51" y="22" width="3" height="1" fill="#4ade80"/>
<rect x="45" y="23" width="3" height="1" fill="#4ade80"/>
<rect x="48" y="23" width="3" height="1" fill="#22c55e"/>
<rect x="51" y="23" width="3" height="1" fill="#4ade80"/>
<rect x="48" y="24" width="3" height="1" fill="#22c55e"/>
<rect x="48" y="25" width="3" height="1" fill="#22c55e"/>
<rect x="48" y="26" width="3" height="1" fill="#22c55e"/>
<rect x="48" y="27" width="3" height="1" fill="#22c55e"/>
<rect x="48" y="28" width="3" height="1" fill="#22c55e"/>
<rect x="48" y="29" width="3" height="1" fill="#22c55e"/>
<rect x="39" y="30" width="9" height="1" fill="#2a190f"/>
<rect x="48" y="30" width="3" height="1" fill="#166534"/>
<rect x="51" y="30" width="9" height="1" fill="#2a190f"/>
<rect x="39" y="31" width="9" height="1" fill="#2a190f"/>
<rect x="48" y="31" width="3" height="1" fill="#166534"/>
<rect x="51" y="31" width="9" height="1" fill="#2a190f"/>
<rect x="39" y="32" width="9" height="1" fill="#2a190f"/>
<rect x="48" y="32" width="3" height="1" fill="#166534"/>
<rect x="51" y="32" width="9" height="1" fill="#2a190f"/>
<rect x="33" y="33" width="6" height="1" fill="#2a190f"/>
<rect x="39" y="33" width="18" height="1" fill="#a07045"/>
<rect x="57" y="33" width="3" height="1" fill="#986940"/>
<rect x="60" y="33" width="6" height="1" fill="#2a190f"/>
<rect x="33" y="34" width="6" height="1" fill="#2a190f"/>
<rect x="39" y="34" width="18" height="1" fill="#a07045"/>
<rect x="57" y="34" width="3" height="1" fill="#986940"/>
<rect x="60" y="34" width="6" height="1" fill="#2a190f"/>
<rect x="33" y="35" width="6" height="1" fill="#2a190f"/>
<rect x="39" y="35" width="18" height="1" fill="#a07045"/>
<rect x="57" y="35" width="3" height="1" fill="#986940"/>
<rect x="60" y="35" width="6" height="1" fill="#2a190f"/>
<rect x="27" y="36" width="6" height="1" fill="#2a190f"/>
<rect x="33" y="36" width="3" height="1" fill="#a07045"/>
<rect x="36" y="36" width="3" height="1" fill="#986940"/>
<rect x="39" y="36" width="21" height="1" fill="#a07045"/>
<rect x="60" y="36" width="3" height="1" fill="#986940"/>
<rect x="63" y="36" width="3" height="1" fill="#b88558"/>
<rect x="66" y="36" width="6" height="1" fill="#2a190f"/>
<rect x="27" y="37" width="6" height="1" fill="#2a190f"/>
<rect x="33" y="37" width="3" height="1" fill="#a07045"/>
<rect x="36" y="37" width="3" height="1" fill="#986940"/>
<rect x="39" y="37" width="21" height="1" fill="#a07045"/>
<rect x="60" y="37" width="3" height="1" fill="#986940"/>
<rect x="63" y="37" width="3" height="1" fill="#b88558"/>
<rect x="66" y="37" width="6" height="1" fill="#2a190f"/>
<rect x="27" y="38" width="6" height="1" fill="#2a190f"/>
<rect x="33" y="38" width="3" height="1" fill="#a07045"/>
<rect x="36" y="38" width="3" height="1" fill="#986940"/>
<rect x="39" y="38" width="21" height="1" fill="#a07045"/>
<rect x="60" y="38" width="3" height="1" fill="#986940"/>
<rect x="63" y="38" width="3" height="1" fill="#b88558"/>
<rect x="66" y="38" width="6" height="1" fill="#2a190f"/>
<rect x="24" y="39" width="3" height="1" fill="#2a190f"/>
<rect x="27" y="39" width="3" height="1" fill="#986940"/>
<rect x="30" y="39" width="30" height="1" fill="#a07045"/>
<rect x="60" y="39" width="3" height="1" fill="#b88558"/>
<rect x="63" y="39" width="3" height="1" fill="#b17f53"/>
<rect x="66" y="39" width="3" height="1" fill="#f0d3ad"/>
<rect x="69" y="39" width="3" height="1" fill="#b17f53"/>
<rect x="72" y="39" width="3" height="1" fill="#2a190f"/>
<rect x="24" y="40" width="3" height="1" fill="#2a190f"/>
<rect x="27" y="40" width="3" height="1" fill="#986940"/>
<rect x="30" y="40" width="30" height="1" fill="#a07045"/>
<rect x="60" y="40" width="3" height="1" fill="#b88558"/>
<rect x="63" y="40" width="3" height="1" fill="#b17f53"/>
<rect x="66" y="40" width="3" height="1" fill="#f0d3ad"/>
<rect x="69" y="40" width="3" height="1" fill="#b17f53"/>
<rect x="72" y="40" width="3" height="1" fill="#2a190f"/>
<rect x="24" y="41" width="3" height="1" fill="#2a190f"/>
<rect x="27" y="41" width="3" height="1" fill="#986940"/>
<rect x="30" y="41" width="30" height="1" fill="#a07045"/>
<rect x="60" y="41" width="3" height="1" fill="#b88558"/>
<rect x="63" y="41" width="3" height="1" fill="#b17f53"/>
<rect x="66" y="41" width="3" height="1" fill="#f0d3ad"/>
<rect x="69" y="41" width="3" height="1" fill="#b17f53"/>
<rect x="72" y="41" width="3" height="1" fill="#2a190f"/>
<rect x="21" y="42" width="3" height="1" fill="#2a190f"/>
<rect x="24" y="42" width="3" height="1" fill="#986940"/>
<rect x="27" y="42" width="33" height="1" fill="#a07045"/>
<rect x="60" y="42" width="3" height="1" fill="#b17f53"/>
<rect x="63" y="42" width="3" height="1" fill="#e1bc93"/>
<rect x="66" y="42" width="3" height="1" fill="#b17f53"/>
<rect x="69" y="42" width="3" height="1" fill="#a07045"/>
<rect x="72" y="42" width="3" height="1" fill="#986940"/>
<rect x="75" y="42" width="3" height="1" fill="#2a190f"/>
<rect x="21" y="43" width="3" height="1" fill="#2a190f"/>
<rect x="24" y="43" width="3" height="1" fill="#986940"/>
<rect x="27" y="43" width="33" height="1" fill="#a07045"/>
<rect x="60" y="43" width="3" height="1" fill="#b17f53"/>
<rect x="63" y="43" width="3" height="1" fill="#e1bc93"/>
<rect x="66" y="43" width="3" height="1" fill="#b17f53"/>
<rect x="69" y="43" width="3" height="1" fill="#a07045"/>
<rect x="72" y="43" width="3" height="1" fill="#986940"/>
<rect x="75" y="43" width="3" height="1" fill="#2a190f"/>
<rect x="21" y="44" width="3" height="1" fill="#2a190f"/>
<rect x="24" y="44" width="3" height="1" fill="#986940"/>
<rect x="27" y="44" width="33" height="1" fill="#a07045"/>
<rect x="60" y="44" width="3" height="1" fill="#b17f53"/>
<rect x="63" y="44" width="3" height="1" fill="#e1bc93"/>
<rect x="66" y="44" width="3" height="1" fill="#b17f53"/>
<rect x="69" y="44" width="3" height="1" fill="#a07045"/>
<rect x="72" y="44" width="3" height="1" fill="#986940"/>
<rect x="75" y="44" width="3" height="1" fill="#2a190f"/>
<rect x="21" y="45" width="3" height="1" fill="#2a190f"/>
<rect x="24" y="45" width="42" height="1" fill="#a07045"/>
<rect x="66" y="45" width="3" height="1" fill="#b17f53"/>
<rect x="69" y="45" width="6" height="1" fill="#a07045"/>
<rect x="75" y="45" width="3" height="1" fill="#2a190f"/>
<rect x="21" y="46" width="3" height="1" fill="#2a190f"/>
<rect x="24" y="46" width="42" height="1" fill="#a07045"/>
<rect x="66" y="46" width="3" height="1" fill="#b17f53"/>
<rect x="69" y="46" width="6" height="1" fill="#a07045"/>
<rect x="75" y="46" width="3" height="1" fill="#2a190f"/>
<rect x="21" y="47" width="3" height="1" fill="#2a190f"/>
<rect x="24" y="47" width="42" height="1" fill="#a07045"/>
<rect x="66" y="47" width="3" height="1" fill="#b17f53"/>
<rect x="69" y="47" width="6" height="1" fill="#a07045"/>
<rect x="75" y="47" width="3" height="1" fill="#2a190f"/>
<rect x="18" y="48" width="3" height="1" fill="#2a190f"/>
<rect x="21" y="48" width="3" height="1" fill="#a07045"/>
<rect x="24" y="48" width="3" height="1" fill="#986940"/>
<rect x="27" y="48" width="45" height="1" fill="#a07045"/>
<rect x="72" y="48" width="3" height="1" fill="#986940"/>
<rect x="75" y="48" width="3" height="1" fill="#a07045"/>
<rect x="78" y="48" width="3" height="1" fill="#2a190f"/>
<rect x="18" y="49" width="3" height="1" fill="#2a190f"/>
<rect x="21" y="49" width="3" height="1" fill="#a07045"/>
<rect x="24" y="49" width="3" height="1" fill="#986940"/>
<rect x="27" y="49" width="45" height="1" fill="#a07045"/>
<rect x="72" y="49" width="3" height="1" fill="#986940"/>
<rect x="75" y="49" width="3" height="1" fill="#a07045"/>
<rect x="78" y="49" width="3" height="1" fill="#2a190f"/>
<rect x="18" y="50" width="3" height="1" fill="#2a190f"/>
<rect x="21" y="50" width="3" height="1" fill="#a07045"/>
<rect x="24" y="50" width="3" height="1" fill="#986940"/>
<rect x="27" y="50" width="45" height="1" fill="#a07045"/>
<rect x="72" y="50" width="3" height="1" fill="#986940"/>
<rect x="75" y="50" width="3" height="1" fill="#a07045"/>
<rect x="78" y="50" width="3" height="1" fill="#2a190f"/>
<rect x="18" y="51" width="3" height="1" fill="#2a190f"/>
<rect x="21" y="51" width="54" height="1" fill="#a07045"/>
<rect x="75" y="51" width="3" height="1" fill="#986940"/>
<rect x="78" y="51" width="3" height="1" fill="#2a190f"/>
<rect x="18" y="52" width="3" height="1" fill="#2a190f"/>
<rect x="21" y="52" width="54" height="1" fill="#a07045"/>
<rect x="75" y="52" width="3" height="1" fill="#986940"/>
<rect x="78" y="52" width="3" height="1" fill="#2a190f"/>
<rect x="18" y="53" width="3" height="1" fill="#2a190f"/>
<rect x="21" y="53" width="54" height="1" fill="#a07045"/>
<rect x="75" y="53" width="3" height="1" fill="#986940"/>
<rect x="78" y="53" width="3" height="1" fill="#2a190f"/>
<rect x="18" y="54" width="3" height="1" fill="#2a190f"/>
<rect x="21" y="54" width="12" height="1" fill="#a07045"/>
<rect x="33" y="54" width="9" height="1" fill="#0b1020"/>
<rect x="42" y="54" width="15" height="1" fill="#a07045"/>
<rect x="57" y="54" width="9" height="1" fill="#0b1020"/>
<rect x="66" y="54" width="12" height="1" fill="#a07045"/>
<rect x="78" y="54" width="3" height="1" fill="#2a190f"/>
<rect x="18" y="55" width="3" height="1" fill="#2a190f"/>
<rect x="21" y="55" width="12" height="1" fill="#a07045"/>
<rect x="33" y="55" width="9" height="1" fill="#0b1020"/>
<rect x="42" y="55" width="15" height="1" fill="#a07045"/>
<rect x="57" y="55" width="9" height="1" fill="#0b1020"/>
<rect x="66" y="55" width="12" height="1" fill="#a07045"/>
<rect x="78" y="55" width="3" height="1" fill="#2a190f"/>
<rect x="18" y="56" width="3" height="1" fill="#2a190f"/>
<rect x="21" y="56" width="12" height="1" fill="#a07045"/>
<rect x="33" y="56" width="9" height="1" fill="#0b1020"/>
<rect x="42" y="56" width="15" height="1" fill="#a07045"/>
<rect x="57" y="56" width="9" height="1" fill="#0b1020"/>
<rect x="66" y="56" width="12" height="1" fill="#a07045"/>
<rect x="78" y="56" width="3" height="1" fill="#2a190f"/>
<rect x="18" y="57" width="3" height="1" fill="#2a190f"/>
<rect x="21" y="57" width="3" height="1" fill="#986940"/>
<rect x="24" y="57" width="12" height="1" fill="#a07045"/>
<rect x="36" y="57" width="6" height="1" fill="#6c4e38"/>
<rect x="42" y="57" width="18" height="1" fill="#a07045"/>
<rect x="60" y="57" width="6" height="1" fill="#6c4e38"/>
<rect x="66" y="57" width="12" height="1" fill="#a07045"/>
<rect x="78" y="57" width="3" height="1" fill="#2a190f"/>
<rect x="18" y="58" width="3" height="1" fill="#2a190f"/>
<rect x="21" y="58" width="3" height="1" fill="#986940"/>
<rect x="24" y="58" width="12" height="1" fill="#a07045"/>
<rect x="36" y="58" width="6" height="1" fill="#6c4e38"/>
<rect x="42" y="58" width="18" height="1" fill="#a07045"/>
<rect x="60" y="58" width="6" height="1" fill="#6c4e38"/>
<rect x="66" y="58" width="12" height="1" fill="#a07045"/>
<rect x="78" y="58" width="3" height="1" fill="#2a190f"/>
<rect x="18" y="59" width="3" height="1" fill="#2a190f"/>
<rect x="21" y="59" width="3" height="1" fill="#986940"/>
<rect x="24" y="59" width="12" height="1" fill="#a07045"/>
<rect x="36" y="59" width="6" height="1" fill="#6c4e38"/>
<rect x="42" y="59" width="18" height="1" fill="#a07045"/>
<rect x="60" y="59" width="6" height="1" fill="#6c4e38"/>
<rect x="66" y="59" width="12" height="1" fill="#a07045"/>
<rect x="78" y="59" width="3" height="1" fill="#2a190f"/>
<rect x="18" y="60" width="3" height="1" fill="#2a190f"/>
<rect x="21" y="60" width="3" height="1" fill="#a07045"/>
<rect x="24" y="60" width="3" height="1" fill="#986940"/>
<rect x="27" y="60" width="45" height="1" fill="#a07045"/>
<rect x="72" y="60" width="3" height="1" fill="#986940"/>
<rect x="75" y="60" width="3" height="1" fill="#a07045"/>
<rect x="78" y="60" width="3" height="1" fill="#2a190f"/>
<rect x="18" y="61" width="3" height="1" fill="#2a190f"/>
<rect x="21" y="61" width="3" height="1" fill="#a07045"/>
<rect x="24" y="61" width="3" height="1" fill="#986940"/>
<rect x="27" y="61" width="45" height="1" fill="#a07045"/>
<rect x="72" y="61" width="3" height="1" fill="#986940"/>
<rect x="75" y="61" width="3" height="1" fill="#a07045"/>
<rect x="78" y="61" width="3" height="1" fill="#2a190f"/>
<rect x="18" y="62" width="3" height="1" fill="#2a190f"/>
<rect x="21" y="62" width="3" height="1" fill="#a07045"/>
<rect x="24" y="62" width="3" height="1" fill="#986940"/>
<rect x="27" y="62" width="45" height="1" fill="#a07045"/>
<rect x="72" y="62" width="3" height="1" fill="#986940"/>
<rect x="75" y="62" width="3" height="1" fill="#a07045"/>
<rect x="78" y="62" width="3" height="1" fill="#2a190f"/>
<rect x="21" y="63" width="3" height="1" fill="#2a190f"/>
<rect x="24" y="63" width="9" height="1" fill="#d97162"/>
<rect x="33" y="63" width="33" height="1" fill="#a07045"/>
<rect x="66" y="63" width="9" height="1" fill="#d97162"/>
<rect x="75" y="63" width="3" height="1" fill="#2a190f"/>
<rect x="21" y="64" width="3" height="1" fill="#2a190f"/>
<rect x="24" y="64" width="9" height="1" fill="#d97162"/>
<rect x="33" y="64" width="33" height="1" fill="#a07045"/>
<rect x="66" y="64" width="9" height="1" fill="#d97162"/>
<rect x="75" y="64" width="3" height="1" fill="#2a190f"/>
<rect x="21" y="65" width="3" height="1" fill="#2a190f"/>
<rect x="24" y="65" width="9" height="1" fill="#d97162"/>
<rect x="33" y="65" width="33" height="1" fill="#a07045"/>
<rect x="66" y="65" width="9" height="1" fill="#d97162"/>
<rect x="75" y="65" width="3" height="1" fill="#2a190f"/>
<rect x="21" y="66" width="3" height="1" fill="#2a190f"/>
<rect x="24" y="66" width="3" height="1" fill="#d66e60"/>
<rect x="27" y="66" width="6" height="1" fill="#d97162"/>
<rect x="33" y="66" width="33" height="1" fill="#a07045"/>
<rect x="66" y="66" width="6" height="1" fill="#d97162"/>
<rect x="72" y="66" width="3" height="1" fill="#d66e60"/>
<rect x="75" y="66" width="3" height="1" fill="#2a190f"/>
<rect x="21" y="67" width="3" height="1" fill="#2a190f"/>
<rect x="24" y="67" width="3" height="1" fill="#d66e60"/>
<rect x="27" y="67" width="6" height="1" fill="#d97162"/>
<rect x="33" y="67" width="33" height="1" fill="#a07045"/>
<rect x="66" y="67" width="6" height="1" fill="#d97162"/>
<rect x="72" y="67" width="3" height="1" fill="#d66e60"/>
<rect x="75" y="67" width="3" height="1" fill="#2a190f"/>
<rect x="21" y="68" width="3" height="1" fill="#2a190f"/>
<rect x="24" y="68" width="3" height="1" fill="#d66e60"/>
<rect x="27" y="68" width="6" height="1" fill="#d97162"/>
<rect x="33" y="68" width="33" height="1" fill="#a07045"/>
<rect x="66" y="68" width="6" height="1" fill="#d97162"/>
<rect x="72" y="68" width="3" height="1" fill="#d66e60"/>
<rect x="75" y="68" width="3" height="1" fill="#2a190f"/>
<rect x="24" y="69" width="3" height="1" fill="#2a190f"/>
<rect x="27" y="69" width="42" height="1" fill="#a07045"/>
<rect x="69" y="69" width="3" height="1" fill="#986940"/>
<rect x="72" y="69" width="3" height="1" fill="#2a190f"/>
<rect x="24" y="70" width="3" height="1" fill="#2a190f"/>
<rect x="27" y="70" width="42" height="1" fill="#a07045"/>
<rect x="69" y="70" width="3" height="1" fill="#986940"/>
<rect x="72" y="70" width="3" height="1" fill="#2a190f"/>
<rect x="24" y="71" width="3" height="1" fill="#2a190f"/>
<rect x="27" y="71" width="42" height="1" fill="#a07045"/>
<rect x="69" y="71" width="3" height="1" fill="#986940"/>
<rect x="72" y="71" width="3" height="1" fill="#2a190f"/>
<rect x="27" y="72" width="6" height="1" fill="#2a190f"/>
<rect x="33" y="72" width="3" height="1" fill="#a07045"/>
<rect x="36" y="72" width="3" height="1" fill="#986940"/>
<rect x="39" y="72" width="12" height="1" fill="#a07045"/>
<rect x="51" y="72" width="3" height="1" fill="#94673f"/>
<rect x="54" y="72" width="6" height="1" fill="#a07045"/>
<rect x="60" y="72" width="3" height="1" fill="#986940"/>
<rect x="63" y="72" width="3" height="1" fill="#a07045"/>
<rect x="66" y="72" width="6" height="1" fill="#2a190f"/>
<rect x="27" y="73" width="6" height="1" fill="#2a190f"/>
<rect x="33" y="73" width="3" height="1" fill="#a07045"/>
<rect x="36" y="73" width="3" height="1" fill="#986940"/>
<rect x="39" y="73" width="12" height="1" fill="#a07045"/>
<rect x="51" y="73" width="3" height="1" fill="#94673f"/>
<rect x="54" y="73" width="6" height="1" fill="#a07045"/>
<rect x="60" y="73" width="3" height="1" fill="#986940"/>
<rect x="63" y="73" width="3" height="1" fill="#a07045"/>
<rect x="66" y="73" width="6" height="1" fill="#2a190f"/>
<rect x="27" y="74" width="6" height="1" fill="#2a190f"/>
<rect x="33" y="74" width="3" height="1" fill="#a07045"/>
<rect x="36" y="74" width="3" height="1" fill="#986940"/>
<rect x="39" y="74" width="12" height="1" fill="#a07045"/>
<rect x="51" y="74" width="3" height="1" fill="#94673f"/>
<rect x="54" y="74" width="6" height="1" fill="#a07045"/>
<rect x="60" y="74" width="3" height="1" fill="#986940"/>
<rect x="63" y="74" width="3" height="1" fill="#a07045"/>
<rect x="66" y="74" width="6" height="1" fill="#2a190f"/>
<rect x="33" y="75" width="6" height="1" fill="#2a190f"/>
<rect x="39" y="75" width="3" height="1" fill="#986940"/>
<rect x="42" y="75" width="6" height="1" fill="#a07045"/>
<rect x="48" y="75" width="3" height="1" fill="#835936"/>
<rect x="51" y="75" width="3" height="1" fill="#775030"/>
<rect x="54" y="75" width="3" height="1" fill="#f0d3ad"/>
<rect x="57" y="75" width="3" height="1" fill="#a07045"/>
<rect x="60" y="75" width="6" height="1" fill="#2a190f"/>
<rect x="33" y="76" width="6" height="1" fill="#2a190f"/>
<rect x="39" y="76" width="3" height="1" fill="#986940"/>
<rect x="42" y="76" width="6" height="1" fill="#a07045"/>
<rect x="48" y="76" width="3" height="1" fill="#835936"/>
<rect x="51" y="76" width="3" height="1" fill="#775030"/>
<rect x="54" y="76" width="3" height="1" fill="#f0d3ad"/>
<rect x="57" y="76" width="3" height="1" fill="#a07045"/>
<rect x="60" y="76" width="6" height="1" fill="#2a190f"/>
<rect x="33" y="77" width="6" height="1" fill="#2a190f"/>
<rect x="39" y="77" width="3" height="1" fill="#986940"/>
<rect x="42" y="77" width="6" height="1" fill="#a07045"/>
<rect x="48" y="77" width="3" height="1" fill="#835936"/>
<rect x="51" y="77" width="3" height="1" fill="#775030"/>
<rect x="54" y="77" width="3" height="1" fill="#f0d3ad"/>
<rect x="57" y="77" width="3" height="1" fill="#a07045"/>
<rect x="60" y="77" width="6" height="1" fill="#2a190f"/>
<rect x="39" y="78" width="21" height="1" fill="#2a190f"/>
<rect x="39" y="79" width="21" height="1" fill="#2a190f"/>
<rect x="39" y="80" width="21" height="1" fill="#2a190f"/>
</svg>